<svg xmlns="http://www.w3.org/2000/svg" xmlns:xlink="http://www.w3.org/1999/xlink" viewBox="0 0 222.82 222.82"><defs><style>.cls-1{opacity:0.99;fill:url(#linear-gradient);}.cls-2{opacity:0.5;fill:url(#linear-gradient-2);}.cls-3,.cls-4{fill:#ff8230;}.cls-3,.cls-5{stroke:#ff8230;stroke-width:3px;}.cls-3,.cls-5,.cls-7{stroke-miterlimit:10;}.cls-5,.cls-7{fill:none;}.cls-6{fill:#5d9aff;}.cls-7{stroke:#5d9aff;stroke-width:7px;}</style><linearGradient id="linear-gradient" y1="111.41" x2="222.82" y2="111.41" gradientUnits="userSpaceOnUse"><stop offset="0" stop-color="#ff71c5"/><stop offset="0.03" stop-color="#ff82cc"/><stop offset="0.09" stop-color="#ffafde"/><stop offset="0.18" stop-color="#fff6fb"/><stop offset="0.19" stop-color="#fff"/><stop offset="0.22" stop-color="#ffecff"/><stop offset="0.25" stop-color="#ffdbff"/><stop offset="0.3" stop-color="#ffd0ff"/><stop offset="0.36" stop-color="#ffc9ff"/><stop offset="0.54" stop-color="#ffc7ff"/><stop offset="0.61" stop-color="#ffcaff"/><stop offset="0.68" stop-color="#ffd5ff"/><stop offset="0.75" stop-color="#ffe6ff"/><stop offset="0.81" stop-color="#fff"/><stop offset="0.86" stop-color="#ffd1ec"/><stop offset="0.96" stop-color="#ff8cd0"/><stop offset="1" stop-color="#ff71c5"/></linearGradient><linearGradient id="linear-gradient-2" y1="111.41" x2="222.82" y2="111.41" gradientUnits="userSpaceOnUse"><stop offset="0" stop-color="#ff5cdf"/><stop offset="0.03" stop-color="#ff6de2"/><stop offset="0.1" stop-color="#ff9aeb"/><stop offset="0.2" stop-color="#ffe1f9"/><stop offset="0.23" stop-color="#fff"/><stop offset="0.78" stop-color="#fff"/><stop offset="0.89" stop-color="#ffa8ee"/><stop offset="0.96" stop-color="#ff71e3"/><stop offset="1" stop-color="#ff5cdf"/></linearGradient></defs><g id="Layer_2" data-name="Layer 2"><g id="_1" data-name="1"><rect class="cls-1" width="222.82" height="222.82" rx="60"/><rect class="cls-2" width="222.82" height="222.82" rx="60" transform="translate(222.82 0) rotate(90)"/><path class="cls-3" d="M184.25,93.61c.33,19.3.26,38.79.37,56.43l-.14-21.16c.07,10.58-.07,19.5-.41,30.28-.42-3.24-.09-10.22-.66-11.91,0-25.82.69-51.72,1.31-76.87C186,80.36,184.21,86.55,184.25,93.61Z"/><path class="cls-3" d="M183.43,187.78c0-2.59,0-5.12,0-7.62C183.46,182.82,183.51,185.44,183.43,187.78Z"/><path class="cls-3" d="M58.67,44.15c-2.93.08-5.86.15-8.71.17C52.82,44.18,55.75,44.18,58.67,44.15Z"/><path class="cls-3" d="M181.16,59.73c-.11-1.55-.19-3.11-.25-4.69.05-4.28.09-8.58.14-13l-14.7-.18-12.66-.2c4.08,0,8.25,0,12.45,0l7.23,0h8.12c0,3.34,0,6.69-.07,10l0,2.45-.05,1.92C181.27,57.2,181.22,58.47,181.16,59.73Z"/><path class="cls-3" d="M180,72.57c.06,12.11-.17,24.39-.74,35.88C179.67,97,179.86,84.87,180,72.57Z"/><path class="cls-3" d="M43.37,112.79c.11-.05.19.18.26.53a7.16,7.16,0,0,0,.14,1l-.45,14.64c-.06-1.21-.27-2.33-.28-3.57C43.21,120,43.72,118.82,43.37,112.79Z"/><path class="cls-3" d="M61.93,44.12l.3-.06,3-.09.36,0C64.36,44.06,63.15,44.09,61.93,44.12Z"/><path class="cls-3" d="M43.43,106.57A1,1,0,0,0,44,106l-.24,8.26a8.38,8.38,0,0,0-.14-.89C43.49,111.48,43.7,108.61,43.43,106.57Z"/><path class="cls-3" d="M45.14,52.6c.11,0,.14-.12.17-.24a.9.9,0,0,1,.13-.31l.71.21.16.05.07,0h.14l1.75.1c2.36.13,4.82.24,7.49.32.82-.1,2.57-.12,4.21-.33,1,.17,2,.31,3.15.44l-12.95-.07-3.28,0h-.81l-.9-.06,0,.61,0,.33V53.3c0-.24,0-.48,0-.71Z"/><path class="cls-4" d="M179.33,182.31c-15.61.31-33.64-.81-48.85.33,17.84.71,42.46,1,45.09,2.81s-24.41.16-38.38.26l3.69.39a23,23,0,0,0-5.33-.17c3.69.39,10.86.75,12.9,1.36l-3.28.44c9.41,1.39,27.05,1.69,36.46,3.07-19.76-1.92-42.85-2.66-67.2-2.86-12.17-.1-24.66-.06-37.2,0L36,188.37c-.08-9.34-.15-18.58-.22-27.63-.62-31.55-2.25-60.83-4.07-88.25-.12-2.59-.15-7-.13-11.88.05-6.22.11-13,.16-18.73,0-3-.06-5.93-.1-8.89l18.57-.22,10.48-.27c7-.2,14-.44,20.87-.76,16.42-.43,32.59-.38,49-.25l24.94.19,12.75,0,22,0H191c0,3.39-.11,7.13-.28,10.22a51.69,51.69,0,0,1-.63,6.64c-.24,1.08-.5.77-.74-1.48s-.44-6.41-.58-13.13L187,34l-27.86.66q-10.81.21-21.67.21c1.68-.57,8.57-.24,11.78-.66-10.67-.35-19.48-.49-29.95-.42l20.93-.14c-17.44.11-36.73,0-55.82.37-7,0-13.1-1.78-23-.47,24.87.63,50.5,1.33,76,1.32a.4.4,0,0,0-.13,0c11.39-.08,21.7,0,32.68,0-3.41.08-6.89.18-9.91.08,3.61.12,7.21.21,10.8.29l1.46,0,2.15,0,4.29.05,8.49.09q-.12,16.07-.23,32.05-.28-6.47-.47-13c0-1.1-.06-2.2-.1-3.31l-.08-4.81c-.05-3.27-.09-6.56-.14-9.86l-18.71.21-14.22.1c-9.52,0-19.09,0-28.64,0-19.1,0-38.1-.07-56.36.22,12.7,1,29.55-.4,40.61.77q-15.51,0-31.15-.1l-32.74-.3,3.24-.11.81,0,.34,0,.29,0,1.16-.07-1.38-.07L47.62,37l-4-.1c-2.7,0-5.44-.08-8.19-.1,0,3.54,0,7.14,0,10.73,0,2.82,0,5.64.05,8.45,0,4.95.07,9.86,0,14.66l-.06,3.57.06-3.57c.08-5,.15-10,.23-14.88.07-4,.14-12,.2-18.47l9.15.08c-2.89.08-5.81.14-8.9.16,0,2.44,0,4.94,0,7.55,0,1.31,0,2.65,0,4l0,3.54.11-1.19.06-.63,0-.87c.07-1.2.12-2.44.17-3.74.1-2.58.18-5.33.25-8.1l3.94.09,12.49.05,10.44.07c-4.08,0-8.14.07-12.13.15l-6.92.14-7.13.19c.09,3.12.1,13,.21,15.92.05-2.83.19-12.59.25-15.46l38.85.48L52.65,40,38.38,39.8c-.1,9.68-.2,19.51-.31,29.42l0-1.59,0,3.16q0,8.13-.1,16.34c0,4.92.27,9.74.56,14.53v2.42c-.18-1.53-.36-2.27-.45.69-.54,12.64.37,26.36-.35,40.86-.19,3.81-.09,8.94.06,14.48a10.33,10.33,0,0,0,.08,3l.1,3.61,0,4.42,0,2.19.08,2.28,0-2.26,0-2.2-.1-4.43,0-3.3a13.39,13.39,0,0,1,.35,3.18c.12-20.3.33-41.35.25-62.52.14,1.27.29,3.07.39,3.82q-.21-3.12-.4-6.24c0-6.84.09-7.32,0-14.16.1,2,.05-2.42.27-.76q0-11.35,0-22.76-.06-11.92-.13-23.89l14-.11c18.2.25,36.22.53,54.19.72-9.68-.54-19.81-.79-30.12-.94,27.42-.24,54.89-.37,82.26.17-4.94.66-11.72,1.12-14.81,2,.19.41,9,.56,3.88.8-18.7,1.16-32.11.13-39.74,2.46-1.44.63,19.53,2.86,12.75,3.33-5.67.2-15.8.41-26.73.55q-4.72-.09-9.81-.1a9.86,9.86,0,0,0-2,.23c-11.85.11-23.13.12-29.37,0l-3.47-.08H49.2L49,49l-.33,0a8.88,8.88,0,0,1-.9-.51,3.8,3.8,0,0,1-.53.31l.06.23-.08.91,0,.49,0,.24v.61l-.12,9.18c-.19,3.4-.42,6.78-.59,10.13.15-.07.34-.61.49,0-.05,7.64-.1,15.22-.16,22.78-.18,3.08-.45,5.9-.84,8.41,1.28,8.21.48,27.18.67,40.36l0,0q0,9.94-.07,20.07c-.12,1.12-.27,2.18-.44,3.18.22,1.67.23,3.43.34,4.26,0,1.35-.1,2.64-.15,3.9l0,.93,0,.45,0,.15-.1.59c-.12.8-.26,1.66-.4,2.63l.07.1a7.21,7.21,0,0,1,1.6-.48c.53,0,1.07,0,1.6,0l4.5,0,11.76.17c13.34.22,26.47.54,39.47.91a1,1,0,0,1,.62.58c2-.27,4.85-.05,6.67-.2-.35.07-.57.15-.51.26,6-.35,7.07.16,12.41.34,1.21,0,2.33-.22,3.52-.28l1.77.06c6.05.93,12.08.62,18.82.65l20.19.72C173.6,181.31,175.64,181.92,179.33,182.31Z"/><path class="cls-5" d="M179.33,182.31c-15.61.31-33.64-.81-48.85.33,17.84.71,42.46,1,45.09,2.81s-24.41.16-38.38.26l3.69.39a23,23,0,0,0-5.33-.17c3.69.39,10.86.75,12.9,1.36l-3.28.44c9.41,1.39,27.05,1.69,36.46,3.07-19.76-1.92-42.85-2.66-67.2-2.86-12.17-.1-24.66-.06-37.2,0L36,188.37c-.08-9.34-.15-18.58-.22-27.63-.62-31.55-2.25-60.83-4.07-88.25-.12-2.59-.15-7-.13-11.88.05-6.22.11-13,.16-18.73,0-3-.06-5.93-.1-8.89l18.57-.22,10.48-.27c7-.2,14-.44,20.87-.76,16.42-.43,32.59-.38,49-.25l24.94.19,12.75,0,22,0H191c0,3.39-.11,7.13-.28,10.22a51.69,51.69,0,0,1-.63,6.64c-.24,1.08-.5.77-.74-1.48s-.44-6.41-.58-13.13L187,34l-27.86.66q-10.81.21-21.67.21c1.68-.57,8.57-.24,11.78-.66-10.67-.35-19.48-.49-29.95-.42l20.93-.14c-17.44.11-36.73,0-55.82.37-7,0-13.1-1.78-23-.47,24.87.63,50.5,1.33,76,1.32a.4.4,0,0,0-.13,0c11.39-.08,21.7,0,32.68,0-3.41.08-6.89.18-9.91.08,3.61.12,7.21.21,10.8.29l1.46,0,2.15,0,4.29.05,8.49.09q-.12,16.07-.23,32.05-.28-6.47-.47-13c0-1.1-.06-2.2-.1-3.31l-.08-4.81c-.05-3.27-.09-6.56-.14-9.86l-18.71.21-14.22.1c-9.52,0-19.09,0-28.64,0-19.1,0-38.1-.07-56.36.22,12.7,1,29.55-.4,40.61.77q-15.51,0-31.15-.1l-32.74-.3,3.24-.11.81,0,.34,0,.29,0,1.16-.07-1.38-.07L47.62,37l-4-.1c-2.7,0-5.44-.08-8.19-.1,0,3.54,0,7.14,0,10.73,0,2.82,0,5.64.05,8.45,0,4.95.07,9.86,0,14.66l-.06,3.57.06-3.57c.08-5,.15-10,.23-14.88.07-4,.14-12,.2-18.47l9.15.08c-2.89.08-5.81.14-8.9.16,0,2.44,0,4.94,0,7.55,0,1.31,0,2.65,0,4l0,3.54.11-1.19.06-.63,0-.87c.07-1.2.12-2.44.17-3.74.1-2.58.18-5.33.25-8.1l3.94.09,12.49.05,10.44.07c-4.08,0-8.14.07-12.13.15l-6.92.14-7.13.19c.09,3.12.1,13,.21,15.92.05-2.83.19-12.59.25-15.46l38.85.48L52.65,40,38.38,39.8c-.1,9.68-.2,19.51-.31,29.42l0-1.59,0,3.16q0,8.13-.1,16.34c0,4.92.27,9.74.56,14.53v2.42c-.18-1.53-.36-2.27-.45.69-.54,12.64.37,26.36-.35,40.86-.19,3.81-.09,8.94.06,14.48a10.33,10.33,0,0,0,.08,3l.1,3.61,0,4.42,0,2.19.08,2.28,0-2.26,0-2.2-.1-4.43,0-3.3a13.39,13.39,0,0,1,.35,3.18c.12-20.3.33-41.35.25-62.52.14,1.27.29,3.07.39,3.82q-.21-3.12-.4-6.24c0-6.84.09-7.32,0-14.16.1,2,.05-2.42.27-.76q0-11.35,0-22.76-.06-11.92-.13-23.89l14-.11c18.2.25,36.22.53,54.19.72-9.68-.54-19.81-.79-30.12-.94,27.42-.24,54.89-.37,82.26.17-4.94.66-11.72,1.12-14.81,2,.19.41,9,.56,3.88.8-18.7,1.16-32.11.13-39.74,2.46-1.44.63,19.53,2.86,12.75,3.33-5.67.2-15.8.41-26.73.55q-4.72-.09-9.81-.1a9.86,9.86,0,0,0-2,.23c-11.85.11-23.13.12-29.37,0l-3.47-.08H49.2L49,49l-.33,0a8.88,8.88,0,0,1-.9-.51,3.8,3.8,0,0,1-.53.31l.06.23-.08.91,0,.49,0,.24v.61l-.12,9.18c-.19,3.4-.42,6.78-.59,10.13.15-.07.34-.61.49,0-.05,7.64-.1,15.22-.16,22.78-.18,3.08-.45,5.9-.84,8.41,1.28,8.21.48,27.18.67,40.36l0,0q0,9.94-.07,20.07c-.12,1.12-.27,2.18-.44,3.18.22,1.67.23,3.43.34,4.26,0,1.35-.1,2.64-.15,3.9l0,.93,0,.45,0,.15-.1.59c-.12.8-.26,1.66-.4,2.63l.07.1a7.21,7.21,0,0,1,1.6-.48c.53,0,1.07,0,1.6,0l4.5,0,11.76.17c13.34.22,26.47.54,39.47.91a1,1,0,0,1,.62.58c2-.27,4.85-.05,6.67-.2-.35.07-.57.15-.51.26,6-.35,7.07.16,12.41.34,1.21,0,2.33-.22,3.52-.28l1.77.06c6.05.93,12.08.62,18.82.65l20.19.72C173.6,181.31,175.64,181.92,179.33,182.31Z"/><path class="cls-3" d="M43.26,130.69q-.32,9.54-.64,19C42.65,142.9,42.34,136.81,43.26,130.69Z"/><path class="cls-3" d="M122.87,52.23c2.48.39,5.28.67,8.31.86L83,53l0-.05C96,52.72,114.74,53.53,122.87,52.23Z"/><path class="cls-3" d="M43.63,113.32a8.38,8.38,0,0,1,.14.89v.06A7.16,7.16,0,0,1,43.63,113.32Z"/><path class="cls-3" d="M153.56,44.25h1.54q-5.88.15-11.79.24C146.46,44.33,150,44.28,153.56,44.25Z"/><path class="cls-3" d="M178.34,61.51q.1,12.17.22,24.34c-.16,10.43-.4,20.68-.93,30.45C177.81,98.14,178.09,79.92,178.34,61.51Z"/><path class="cls-3" d="M153.75,52.75c3.31.17,6.66.4,10,.6l-10.05-.11C154.35,53.09,153.82,52.9,153.75,52.75Z"/><path class="cls-3" d="M120.61,44.72H123l-6.18.4C117.59,45,119.37,44.87,120.61,44.72Z"/><path class="cls-3" d="M169.42,55l0-.94V54h0l0-.06a1.26,1.26,0,0,0,.07-.16.77.77,0,0,1,.36.09l-.28.12-.06,0h0v.16Z"/><path class="cls-3" d="M169.48,93.75c0,3.41,0,6.73-.11,9.91,0-3.94-.08-8-.13-12A10.44,10.44,0,0,1,169.48,93.75Z"/><path class="cls-6" d="M118.14,66.54c1.25.35,1.28.21,2.54.57s2.46.91,3.69,1.37A33.94,33.94,0,0,1,128,70.1l1.77.88c.58.3,1.14.67,1.71,1a47.15,47.15,0,0,1,20.77,55.62,43.8,43.8,0,0,1-7.95,14.18,43.13,43.13,0,0,1-12.83,10.31c1.5-.51.76.09.54.4l-.29.14.29-.14c-.1.14-.09.22.25.12a11.36,11.36,0,0,0,2.25-1.15,11.36,11.36,0,0,1-2.25,1.15c-.34.1-.35,0-.25-.12a42.1,42.1,0,0,0,13-10.16,43.49,43.49,0,0,0,8.1-14.21,47.86,47.86,0,0,0-8.34-45.58A50,50,0,0,0,132.8,72.08l-1.69-1-.85-.51-.88-.45c-1.17-.58-2.34-1.18-3.53-1.74l-3.65-1.45-.91-.35-.93-.29-1.87-.56-1.88-.56a11,11,0,0,0-1.08-.24l-1.15-.23c-.39-.06-.77-.15-1.16-.19l-1.17-.09a18.68,18.68,0,0,0-2.36-.08c-3.17,0-5.73,2.17-8.55,3.24,2.16-.9,4-2.84,6.45-3.16l1.84-.11.92,0,.92,0,1.85.12c.61.06,1.2.2,1.81.3l.9.17a6.34,6.34,0,0,1,.83.2l1.47.42,2.94.87c1,.32,1.93.73,2.89,1.09a30.64,30.64,0,0,1,2.85,1.19,51.74,51.74,0,0,1,5.5,2.92l1.34.82a10.91,10.91,0,0,1,1.3.87l2.54,1.87.62.47.6.52,1.18,1a27.92,27.92,0,0,1,2.3,2.18l2.17,2.33c.67.82,1.32,1.66,2,2.5a48.35,48.35,0,0,1,9.34,23.52,51,51,0,0,1-.26,12.82,47,47,0,0,1-3.77,12.33,41.2,41.2,0,0,1-7.21,10.8,25,25,0,0,1-2.28,2.32c-.81.72-1.6,1.47-2.45,2.15L137.08,150a13.13,13.13,0,0,1-1.36.88l-1.4.82-1.4.81c-.47.25-1,.46-1.45.69-1,.44-1.94.91-2.93,1.31a49.41,49.41,0,0,1-6.07,1.88A55.06,55.06,0,0,1,110.09,158c-.58,0-1.26-.05-1.88-.09a13.44,13.44,0,0,1-1.91-.2,22.12,22.12,0,0,1-3.73-.93l-1.79-.65c-.57-.26-1.12-.55-1.68-.84A23.44,23.44,0,0,1,96,153.34a37.16,37.16,0,0,1-9.27-9.91,65.46,65.46,0,0,1-5.87-11.19,98.08,98.08,0,0,1-4-11.65c-.18-.67-.43-1.51-.66-2.44l-.7-3c-.44-2-.87-4.06-1.1-5.42-.55-5.52,2.85-24.72,2.85-19.39h0c.21-5.28,2.33-9.9,3.63-12.78A22.37,22.37,0,0,1,85.54,71c1.2-1.19,1.6-.45,1.51-.42s-.13.24.8.5c.63.18-1.23,2.36-1.66,3.4s-1.11,3.43-1,8.3c0,2.73.13,5.61.34,8.59s.52,6.07,1,9.22.95,6.36,1.62,9.59,1.47,6.49,2.45,9.69A78.23,78.23,0,0,0,94,129.23a45.42,45.42,0,0,0,4.75,8.27,20,20,0,0,0,6,5.61,10.48,10.48,0,0,0,3.13,1.16l.77.15.8,0a13.05,13.05,0,0,0,2.06-.08,37.25,37.25,0,0,0,12.73-2.77,29.54,29.54,0,0,0,10.18-7.1,31.11,31.11,0,0,0,6.47-10.66,35.25,35.25,0,0,0,2-12.7,38.4,38.4,0,0,0-.36-4.52,38.51,38.51,0,0,0-1.06-4.46l-.32-1.12c-.11-.37-.28-.71-.42-1.08-.29-.71-.54-1.45-.87-2.15l-1-2.09c-.34-.7-.81-1.33-1.2-2l-.62-1-.71-.94c-.49-.61-.92-1.28-1.45-1.86l-1.6-1.75a6.67,6.67,0,0,0-.84-.84l-.89-.8a41.82,41.82,0,0,0-3.73-3c-.67-.44-1.37-.85-2-1.28l-1-.64c-.35-.2-.72-.37-1.09-.55l-2.17-1.11c-.75-.32-1.53-.61-2.29-.92a15.85,15.85,0,0,0-4.69-1.58,10,10,0,0,0-2-.15h-2l-4,1a29.18,29.18,0,0,1-4,2L96,84.2a47.22,47.22,0,0,0-6,8.07c-2.87,4.38-5.72,11.92-7.66,18.49-1,3.28-1.75,6.45-2.39,9.13s-1.07,4.85-1.5,6.17c-1,3.84-1.54,4-2.22,3.25a97.12,97.12,0,0,1,2.51-13.62,103.22,103.22,0,0,1,4.29-13,69.77,69.77,0,0,1,6-11.38,59.07,59.07,0,0,1,9.35-11c6.12-5.11,10.1-5,15.14-5,6.06,0,13.75,5.28,17.16,8.07,3.85,3.15,6.85,7.63,9.13,12.15a55.61,55.61,0,0,1,3,8c1,3,1,11.1,0,16.15-.78,3.91-4,12.11-4,12.11s4.71-11.11,4.94-18.17a50.45,50.45,0,0,0-.4-9.08,58.76,58.76,0,0,0-4.54-12.11,28.65,28.65,0,0,0-7.07-9.09c-2-2-7.06-5-10.93-7-4.39-2.16-9.69-2-14.3-1.12-2.4.48-5.4,2.3-9.23,5.61a45.56,45.56,0,0,0-8.16,9.65,76,76,0,0,0-6.17,11.81,103,103,0,0,0-7.15,26.32c-.55-.74-1.1-1.5-1.84-.44a10.09,10.09,0,0,0-.76,3.11c-.06,1-.3,1.91-.34,2.86s-.14,1.84-.16,2.57c-.71,5.77-.37,8.31-1.33,8.47s-2.15-2-3-5.19c-.36-1.6-.74-3.43-1-5.47.1-1.56.28-3.1.46-4.61A118,118,0,0,1,72,109.55c1-3.32,2.17-6.58,3.49-9.81a88.44,88.44,0,0,1,4.49-9.51C83.32,84,87.51,78,93.44,73.24a27.92,27.92,0,0,1,10.29-5.3l.72-.2.74-.12s2.48-.32,3-.34c0,0,3.52.13,4.52.23l1.44.54c.8,0,1,0,1,0l.07-.29L113,67.3c-.84-.1-1.71-.17-2.57-.25a23.61,23.61,0,0,0-5.17.37c-3.41.65-14.76,8-17,10.39a70.56,70.56,0,0,0-10.66,16q-2.13,4.26-3.85,8.66c-1.16,2.92-2.17,5.9-3.08,8.9s-1.69,6-2.39,9.09-1.23,6.16-1.62,9.3a59.46,59.46,0,0,1,1.9-18.19A106.4,106.4,0,0,1,78,88.17a69.92,69.92,0,0,1,7.21-10.56,43.2,43.2,0,0,1,9.85-8.85,7.82,7.82,0,0,1,2-1.22c3-1,4.13-.75,7.28-1.52l2.39-.43c.8-.11,1.61-.12,2.42-.17a16.14,16.14,0,0,1,2.41.08l1.21.11a10,10,0,0,1,1.05.17,30.43,30.43,0,0,0,3.24.76C117.39,66.56,118.14,66.54,118.14,66.54Z"/><path class="cls-7" d="M118.14,66.54c1.25.35,1.28.21,2.54.57s2.46.91,3.69,1.37A33.94,33.94,0,0,1,128,70.1l1.77.88c.58.3,1.14.67,1.71,1a47.15,47.15,0,0,1,20.77,55.62,43.8,43.8,0,0,1-7.95,14.18,43.13,43.13,0,0,1-12.83,10.31c1.5-.51.76.09.54.4l-.29.14.29-.14c-.1.14-.09.22.25.12a11.36,11.36,0,0,0,2.25-1.15,11.36,11.36,0,0,1-2.25,1.15c-.34.1-.35,0-.25-.12a42.1,42.1,0,0,0,13-10.16,43.49,43.49,0,0,0,8.1-14.21,47.86,47.86,0,0,0-8.34-45.58A50,50,0,0,0,132.8,72.08l-1.69-1-.85-.51-.88-.45c-1.17-.58-2.34-1.18-3.53-1.74l-3.65-1.45-.91-.35-.93-.29-1.87-.56-1.88-.56a11,11,0,0,0-1.08-.24l-1.15-.23c-.39-.06-.77-.15-1.16-.19l-1.17-.09a18.68,18.68,0,0,0-2.36-.08c-3.17,0-5.73,2.17-8.55,3.24,2.16-.9,4-2.84,6.45-3.16l1.84-.11.92,0,.92,0,1.85.12c.61.06,1.2.2,1.81.3l.9.17a6.34,6.34,0,0,1,.83.2l1.47.42,2.94.87c1,.32,1.93.73,2.89,1.09a30.64,30.64,0,0,1,2.85,1.19,51.74,51.74,0,0,1,5.5,2.92l1.34.82a10.91,10.91,0,0,1,1.3.87l2.54,1.87.62.47.6.52,1.18,1a27.92,27.92,0,0,1,2.3,2.18l2.17,2.33c.67.82,1.32,1.66,2,2.5a48.35,48.35,0,0,1,9.34,23.52,51,51,0,0,1-.26,12.82,47,47,0,0,1-3.77,12.33,41.2,41.2,0,0,1-7.21,10.8,25,25,0,0,1-2.28,2.32c-.81.72-1.6,1.47-2.45,2.15L137.08,150a13.13,13.13,0,0,1-1.36.88l-1.4.82-1.4.81c-.47.25-1,.46-1.45.69-1,.44-1.94.91-2.93,1.31a49.41,49.41,0,0,1-6.07,1.88A55.06,55.06,0,0,1,110.09,158c-.58,0-1.26-.05-1.88-.09a13.44,13.44,0,0,1-1.91-.2,22.12,22.12,0,0,1-3.73-.93l-1.79-.65c-.57-.26-1.12-.55-1.68-.84A23.44,23.44,0,0,1,96,153.34a37.16,37.16,0,0,1-9.27-9.91,65.46,65.46,0,0,1-5.87-11.19,98.08,98.08,0,0,1-4-11.65c-.18-.67-.43-1.51-.66-2.44l-.7-3c-.44-2-.87-4.06-1.1-5.42-.55-5.52,2.85-24.72,2.85-19.39h0c.21-5.28,2.33-9.9,3.63-12.78A22.37,22.37,0,0,1,85.54,71c1.2-1.19,1.6-.45,1.51-.42s-.13.24.8.5c.63.18-1.23,2.36-1.66,3.4s-1.11,3.43-1,8.3c0,2.73.13,5.61.34,8.59s.52,6.07,1,9.22.95,6.36,1.62,9.59,1.47,6.49,2.45,9.69A78.23,78.23,0,0,0,94,129.23a45.42,45.42,0,0,0,4.75,8.27,20,20,0,0,0,6,5.61,10.48,10.48,0,0,0,3.13,1.16l.77.15.8,0a13.05,13.05,0,0,0,2.06-.08,37.25,37.25,0,0,0,12.73-2.77,29.54,29.54,0,0,0,10.18-7.1,31.11,31.11,0,0,0,6.47-10.66,35.25,35.25,0,0,0,2-12.7,38.4,38.4,0,0,0-.36-4.52,38.51,38.51,0,0,0-1.06-4.46l-.32-1.12c-.11-.37-.28-.71-.42-1.08-.29-.71-.54-1.45-.87-2.15l-1-2.09c-.34-.7-.81-1.33-1.2-2l-.62-1-.71-.94c-.49-.61-.92-1.28-1.45-1.86l-1.6-1.75a6.67,6.67,0,0,0-.84-.84l-.89-.8a41.82,41.82,0,0,0-3.73-3c-.67-.44-1.37-.85-2-1.28l-1-.64c-.35-.2-.72-.37-1.09-.55l-2.17-1.11c-.75-.32-1.53-.61-2.29-.92a15.85,15.85,0,0,0-4.69-1.58,10,10,0,0,0-2-.15h-2l-4,1a29.18,29.18,0,0,1-4,2L96,84.2a47.22,47.22,0,0,0-6,8.07c-2.87,4.38-5.72,11.92-7.66,18.49-1,3.28-1.75,6.45-2.39,9.13s-1.07,4.85-1.5,6.17c-1,3.84-1.54,4-2.22,3.25a97.12,97.12,0,0,1,2.51-13.62,103.22,103.22,0,0,1,4.29-13,69.77,69.77,0,0,1,6-11.38,59.07,59.07,0,0,1,9.35-11c6.12-5.11,10.1-5,15.14-5,6.06,0,13.75,5.28,17.16,8.07,3.85,3.15,6.85,7.63,9.13,12.15a55.61,55.61,0,0,1,3,8c1,3,1,11.1,0,16.15-.78,3.91-4,12.11-4,12.11s4.71-11.11,4.94-18.17a50.45,50.45,0,0,0-.4-9.08,58.76,58.76,0,0,0-4.54-12.11,28.65,28.65,0,0,0-7.07-9.09c-2-2-7.06-5-10.93-7-4.39-2.16-9.69-2-14.3-1.12-2.4.48-5.4,2.3-9.23,5.61a45.56,45.56,0,0,0-8.16,9.65,76,76,0,0,0-6.17,11.81,103,103,0,0,0-7.15,26.32c-.55-.74-1.1-1.5-1.84-.44a10.09,10.09,0,0,0-.76,3.11c-.06,1-.3,1.91-.34,2.86s-.14,1.84-.16,2.57c-.71,5.77-.37,8.31-1.33,8.47s-2.15-2-3-5.19c-.36-1.6-.74-3.43-1-5.47.1-1.56.28-3.1.46-4.61A118,118,0,0,1,72,109.55c1-3.32,2.17-6.58,3.49-9.81a88.44,88.44,0,0,1,4.49-9.51C83.32,84,87.51,78,93.44,73.24a27.92,27.92,0,0,1,10.29-5.3l.72-.2.74-.12s2.48-.32,3-.34c0,0,3.52.13,4.52.23l1.44.54c.8,0,1,0,1,0l.07-.29L113,67.3c-.84-.1-1.71-.17-2.57-.25a23.61,23.61,0,0,0-5.17.37c-3.41.65-14.76,8-17,10.39a70.56,70.56,0,0,0-10.66,16q-2.13,4.26-3.85,8.66c-1.16,2.92-2.17,5.9-3.08,8.9s-1.69,6-2.39,9.09-1.23,6.16-1.62,9.3a59.46,59.46,0,0,1,1.9-18.19A106.4,106.4,0,0,1,78,88.17a69.92,69.92,0,0,1,7.21-10.56,43.2,43.2,0,0,1,9.85-8.85,7.82,7.82,0,0,1,2-1.22c3-1,4.13-.75,7.28-1.52l2.39-.43c.8-.11,1.61-.12,2.42-.17a16.14,16.14,0,0,1,2.41.08l1.21.11a10,10,0,0,1,1.05.17,30.43,30.43,0,0,0,3.24.76C117.39,66.56,118.14,66.54,118.14,66.54Z"/></g></g></svg>