<svg xmlns="http://www.w3.org/2000/svg" xmlns:xlink="http://www.w3.org/1999/xlink" viewBox="0 0 264.84 264.84"><defs><style>.cls-1,.cls-2{stroke:#ff7400;}.cls-1,.cls-2,.cls-3,.cls-6{stroke-miterlimit:10;}.cls-1{stroke-width:10px;opacity:0.99;fill:url(#linear-gradient);}.cls-2{stroke-width:20px;opacity:0.5;fill:url(#linear-gradient-2);}.cls-3,.cls-4{fill:#ffa030;}.cls-3{stroke:#ffa030;stroke-width:3px;}.cls-5{fill:#5d9aff;}.cls-6{fill:none;stroke:#5d9aff;stroke-width:7px;}</style><linearGradient id="linear-gradient" x1="10" y1="132.42" x2="254.84" y2="132.42" gradientUnits="userSpaceOnUse"><stop offset="0" stop-color="#ff7400"/><stop offset="0.02" stop-color="#ff7d11"/><stop offset="0.06" stop-color="#ff963e"/><stop offset="0.11" stop-color="#ffbd86"/><stop offset="0.17" stop-color="#fff3e9"/><stop offset="0.19" stop-color="#fff"/><stop offset="0.28" stop-color="#fff"/><stop offset="0.81" stop-color="#fff"/><stop offset="0.84" stop-color="#ffe5cf"/><stop offset="0.92" stop-color="#ffa961"/><stop offset="0.97" stop-color="#ff831b"/><stop offset="1" stop-color="#ff7400"/></linearGradient><linearGradient id="linear-gradient-2" x1="10" y1="132.42" x2="254.84" y2="132.42" gradientUnits="userSpaceOnUse"><stop offset="0" stop-color="#ff7400"/><stop offset="0.03" stop-color="#ff7d11"/><stop offset="0.07" stop-color="#ff963e"/><stop offset="0.14" stop-color="#ffbd86"/><stop offset="0.22" stop-color="#fff3e9"/><stop offset="0.23" stop-color="#fff"/><stop offset="0.78" stop-color="#fff"/><stop offset="0.85" stop-color="#ffcda3"/><stop offset="0.92" stop-color="#ff9d4c"/><stop offset="0.98" stop-color="#ff8015"/><stop offset="1" stop-color="#ff7400"/></linearGradient></defs><g id="Layer_2" data-name="Layer 2"><g id="_1" data-name="1"><rect class="cls-1" x="10" y="10" width="244.84" height="244.84" rx="60"/><rect class="cls-2" x="10" y="10" width="244.84" height="244.84" rx="60" transform="translate(264.84 0) rotate(90)"/><path class="cls-3" d="M205.26,114.62c.33,19.29.26,38.79.37,56.43l-.14-21.16c.07,10.58-.07,19.5-.41,30.28-.42-3.24-.09-10.22-.66-11.91,0-25.82.68-51.72,1.3-76.87C207,101.37,205.22,107.56,205.26,114.62Z"/><path class="cls-3" d="M204.44,208.79c0-2.59,0-5.12,0-7.62C204.47,203.83,204.52,206.45,204.44,208.79Z"/><path class="cls-3" d="M79.68,65.16c-2.93.08-5.87.15-8.71.17C73.83,65.19,76.76,65.19,79.68,65.16Z"/><path class="cls-3" d="M202.17,80.74c-.11-1.55-.19-3.11-.25-4.69,0-4.28.09-8.58.13-13l-14.69-.18-12.66-.2c4.08,0,8.25,0,12.45,0l7.23-.05,8.12,0c0,3.35,0,6.7-.07,10L202.38,75l-.06,1.92Q202.26,78.85,202.17,80.74Z"/><path class="cls-3" d="M201,93.58c.06,12.11-.17,24.39-.74,35.88C200.68,118,200.87,105.88,201,93.58Z"/><path class="cls-3" d="M64.38,133.8c.11-.05.19.18.26.52a7.08,7.08,0,0,0,.14,1q-.23,7.33-.45,14.64c-.06-1.21-.27-2.34-.28-3.57C64.22,141,64.73,139.83,64.38,133.8Z"/><path class="cls-3" d="M82.94,65.12l.3-.05,3-.09.36,0C85.37,65.07,84.16,65.1,82.94,65.12Z"/><path class="cls-3" d="M64.44,127.58A1,1,0,0,0,65,127l-.24,8.26c0-.33-.09-.64-.14-.9C64.5,132.49,64.71,129.62,64.44,127.58Z"/><path class="cls-3" d="M66.15,73.61c.11,0,.14-.12.17-.24a.9.9,0,0,1,.13-.31l.71.21.16,0,.07,0h.14l1.75.1c2.36.13,4.82.24,7.49.32.82-.1,2.57-.12,4.21-.33,1,.17,2,.31,3.15.44l-12.95-.07-3.28,0h-.81l-.9-.06,0,.61,0,.33v-.35c0-.24,0-.48,0-.71Z"/><path class="cls-4" d="M200.34,203.32c-15.61.31-33.64-.81-48.85.33,17.84.71,42.46,1,45.09,2.81s-24.41.16-38.38.26l3.69.39a23.58,23.58,0,0,0-5.33-.18c3.69.4,10.86.76,12.9,1.37l-3.28.44c9.41,1.39,27,1.68,36.46,3.07-19.76-1.92-42.85-2.67-67.2-2.86-12.17-.1-24.66-.06-37.2,0L57,209.38c-.08-9.34-.15-18.58-.22-27.63-.62-31.55-2.25-60.83-4.07-88.25-.12-2.59-.15-7-.13-11.88,0-6.22.11-13,.16-18.73,0-3-.07-5.93-.1-8.89l18.57-.22,10.48-.27c7-.2,13.94-.44,20.87-.77,16.42-.42,32.59-.37,49-.25l24.94.2,12.75,0,22,0H212c0,3.39-.11,7.13-.28,10.22a51.69,51.69,0,0,1-.63,6.64c-.25,1.08-.51.77-.74-1.48s-.44-6.42-.58-13.13L208,55l-27.86.66q-10.81.21-21.67.21c1.67-.57,8.57-.24,11.78-.66-10.67-.35-19.49-.5-30-.43l20.93-.14c-17.44.12-36.73,0-55.82.38-7,.05-13.1-1.78-23-.47,24.87.63,50.5,1.33,76,1.32a.4.4,0,0,0-.13,0c11.39-.08,21.69,0,32.68,0-3.41.08-6.89.18-9.91.08,3.61.12,7.21.21,10.8.29l1.46,0,2.15,0,4.29.05,8.49.09c-.08,10.71-.15,21.37-.23,32q-.28-6.45-.47-13c0-1.09-.06-2.19-.1-3.3l-.08-4.81q-.07-4.9-.14-9.86l-18.71.21-14.22.1c-9.52,0-19.09,0-28.64,0-19.1,0-38.1-.07-56.36.22,12.7.95,29.55-.4,40.61.77q-15.51,0-31.15-.1l-32.74-.3,3.24-.11.81,0,.34,0,.29,0,1.16-.07-1.38-.07-1.89,0-4-.1c-2.7-.05-5.44-.08-8.19-.1,0,3.54,0,7.14,0,10.73,0,2.82,0,5.64.05,8.45,0,5,.07,9.86,0,14.66l-.06,3.57.06-3.57c.08-5,.15-10,.23-14.88.07-4,.14-12,.2-18.47l9.15.08c-2.89.08-5.81.14-8.9.16,0,2.44,0,4.94,0,7.55,0,1.31,0,2.65,0,4l0,3.54.11-1.19,0-.63.05-.87c.07-1.2.12-2.45.17-3.74.1-2.58.18-5.33.25-8.11l3.94.1,12.48.05,10.44.07c-4.07,0-8.13.07-12.12.15l-6.92.14-7.13.19c.09,3.12.1,13,.21,15.92,0-2.83.19-12.59.25-15.46l38.85.48L73.66,61l-14.27-.18c-.1,9.68-.2,19.51-.31,29.42l0-1.59,0,3.16q0,8.13-.1,16.34c0,4.92.26,9.74.56,14.52v2.43c-.18-1.53-.36-2.28-.45.69-.54,12.64.37,26.36-.35,40.86-.19,3.81-.09,8.94.06,14.48a10,10,0,0,0,.08,3l.1,3.61,0,4.42,0,2.19.08,2.28,0-2.26,0-2.2-.1-4.43,0-3.3a14,14,0,0,1,.35,3.18c.12-20.3.33-41.35.25-62.52.14,1.27.29,3.07.39,3.82q-.21-3.12-.4-6.25c0-6.83.09-7.31,0-14.15.11,2,.06-2.42.28-.76q0-11.35,0-22.76-.06-11.92-.13-23.89l14-.11c18.2.25,36.22.53,54.19.72-9.68-.54-19.81-.79-30.12-.94,27.42-.24,54.89-.37,82.25.17-4.93.66-11.71,1.12-14.81,2,.2.41,9,.56,3.89.8-18.7,1.16-32.11.13-39.74,2.46-1.44.63,19.53,2.86,12.75,3.33-5.67.2-15.8.41-26.73.55q-4.73-.09-9.81-.1a9.86,9.86,0,0,0-2,.23c-11.85.11-23.13.12-29.37,0l-3.47-.08H70.2L70,70l-.33,0a10.09,10.09,0,0,1-.89-.51,3.8,3.8,0,0,1-.53.31l0,.23-.07.91,0,.48,0,.25v.61q-.06,4.6-.12,9.18c-.19,3.4-.42,6.78-.59,10.13.15-.07.34-.61.49,0,0,7.64-.11,15.22-.16,22.78-.18,3.08-.45,5.9-.84,8.4,1.28,8.22.48,27.19.67,40.37l0,0q0,9.94-.07,20.07c-.12,1.12-.27,2.18-.44,3.18.22,1.67.23,3.43.34,4.26,0,1.35-.1,2.64-.15,3.9l0,.93,0,.45,0,.15-.1.59c-.12.8-.26,1.66-.4,2.63l.07.1a6.71,6.71,0,0,1,1.6-.48c.53,0,1.07,0,1.6,0l4.5,0,11.76.17c13.34.22,26.47.54,39.47.91a1,1,0,0,1,.62.58c2-.27,4.85,0,6.67-.2-.35.07-.57.15-.51.26,6-.35,7.07.16,12.41.34,1.21,0,2.33-.22,3.52-.28l1.77.06c6,.93,12.07.62,18.82.65l20.18.72C194.61,202.32,196.65,202.93,200.34,203.32Z"/><path class="cls-3" d="M64.27,151.7q-.31,9.54-.64,19C63.66,163.91,63.35,157.82,64.27,151.7Z"/><path class="cls-3" d="M143.88,73.24c2.48.39,5.28.67,8.31.86L104,74l0,0C117,73.73,135.75,74.54,143.88,73.24Z"/><path class="cls-3" d="M64.64,134.32c0,.26.1.57.14.9v.06A7.08,7.08,0,0,1,64.64,134.32Z"/><path class="cls-3" d="M174.57,65.26h1.54q-5.88.15-11.79.24C167.46,65.34,171,65.29,174.57,65.26Z"/><path class="cls-3" d="M199.35,82.52q.1,12.17.22,24.34c-.16,10.43-.4,20.68-.93,30.45C198.82,119.15,199.1,100.93,199.35,82.52Z"/><path class="cls-3" d="M174.76,73.76c3.31.17,6.66.4,10,.6l-10.05-.11C175.36,74.1,174.83,73.91,174.76,73.76Z"/><path class="cls-3" d="M141.62,65.73H144l-6.18.4C138.6,66,140.38,65.88,141.62,65.73Z"/><path class="cls-3" d="M190.43,76l0-.94V75h0l0-.06a1.26,1.26,0,0,0,.07-.16.77.77,0,0,1,.36.09l-.28.12-.06,0h0v.16Z"/><path class="cls-3" d="M190.49,114.76c0,3.41,0,6.73-.11,9.91,0-3.94-.08-8-.13-12A10.44,10.44,0,0,1,190.49,114.76Z"/><path class="cls-5" d="M139.15,87.55c1.25.35,1.28.21,2.54.57s2.46.91,3.69,1.37a33.94,33.94,0,0,1,3.6,1.62l1.77.88c.58.3,1.14.67,1.71,1a47.15,47.15,0,0,1,20.77,55.62,43.8,43.8,0,0,1-7.95,14.18,43.13,43.13,0,0,1-12.83,10.31c1.5-.51.76.09.54.4l-.29.14.29-.14c-.1.14-.09.22.25.12a11.36,11.36,0,0,0,2.25-1.15,11.36,11.36,0,0,1-2.25,1.15c-.34.1-.35,0-.25-.12a42.1,42.1,0,0,0,13-10.16,43.49,43.49,0,0,0,8.1-14.21,47.84,47.84,0,0,0-8.34-45.58,50,50,0,0,0-11.92-10.47l-1.69-1-.85-.51-.88-.45c-1.17-.58-2.34-1.18-3.53-1.75l-3.65-1.44-.91-.35-.93-.29-1.87-.56-1.88-.56a8.74,8.74,0,0,0-1.08-.24l-1.15-.23c-.39-.06-.77-.15-1.16-.19l-1.17-.09a18.68,18.68,0,0,0-2.36-.08c-3.17,0-5.73,2.17-8.55,3.24,2.16-.9,4-2.84,6.45-3.16l1.84-.11.92,0,.92.05,1.85.12c.61.06,1.2.2,1.81.3l.9.17c.3.06.61.12.83.19l1.47.43,2.94.87c1,.32,1.93.73,2.89,1.09a30.64,30.64,0,0,1,2.85,1.19,51.74,51.74,0,0,1,5.5,2.92l1.34.82a10.91,10.91,0,0,1,1.3.87l2.54,1.87.62.47.6.52,1.18,1a26.33,26.33,0,0,1,2.3,2.18l2.17,2.32c.67.83,1.32,1.67,2,2.51a48.41,48.41,0,0,1,9.34,23.52,51,51,0,0,1-.26,12.82,47,47,0,0,1-3.77,12.33,41.2,41.2,0,0,1-7.21,10.8,25,25,0,0,1-2.28,2.32c-.82.72-1.6,1.47-2.45,2.15L158.09,171a13.13,13.13,0,0,1-1.36.88l-1.4.82-1.4.81c-.47.25-1,.46-1.45.69-1,.44-1.94.91-2.93,1.31a49.41,49.41,0,0,1-6.07,1.88A55.06,55.06,0,0,1,131.1,179c-.58,0-1.26-.05-1.89-.09a13.45,13.45,0,0,1-1.9-.2,22.12,22.12,0,0,1-3.73-.93l-1.79-.65c-.57-.26-1.12-.55-1.68-.84a22.5,22.5,0,0,1-3.14-1.92,37,37,0,0,1-9.27-9.9,65.46,65.46,0,0,1-5.87-11.19,100,100,0,0,1-4-11.65c-.17-.68-.42-1.51-.65-2.44l-.7-2.95c-.44-2-.87-4.06-1.1-5.42-.55-5.52,2.85-24.72,2.85-19.39h0c.2-5.29,2.33-9.9,3.63-12.78A22.37,22.37,0,0,1,106.55,92c1.2-1.19,1.6-.45,1.51-.42s-.13.24.8.5c.62.18-1.23,2.36-1.66,3.4s-1.11,3.43-1,8.3c0,2.73.13,5.61.34,8.59s.52,6.07,1,9.22,1,6.36,1.62,9.59,1.47,6.49,2.45,9.69a78.23,78.23,0,0,0,3.47,9.37,45.42,45.42,0,0,0,4.75,8.27,20,20,0,0,0,6,5.61,10.43,10.43,0,0,0,3.12,1.16l.78.15.8,0a13.05,13.05,0,0,0,2.06-.08,37.25,37.25,0,0,0,12.73-2.77,29.54,29.54,0,0,0,10.18-7.1,31.21,31.21,0,0,0,6.47-10.66,35.25,35.25,0,0,0,2-12.7,38.4,38.4,0,0,0-.36-4.52,39.17,39.17,0,0,0-1.06-4.47l-.32-1.11c-.11-.37-.28-.72-.42-1.08-.29-.71-.54-1.45-.87-2.15l-1.05-2.09c-.34-.7-.81-1.33-1.2-2l-.62-1-.71-.93c-.49-.62-.92-1.28-1.45-1.87l-1.6-1.75a7.32,7.32,0,0,0-.84-.83l-.89-.8a41.82,41.82,0,0,0-3.73-3c-.67-.44-1.37-.85-2.05-1.28l-1-.64c-.35-.2-.72-.37-1.09-.55L142.33,101c-.74-.33-1.52-.61-2.28-.92a15.85,15.85,0,0,0-4.69-1.58,10.18,10.18,0,0,0-2-.16h-2l-4,1a29.18,29.18,0,0,1-4,2L117,105.21a47.22,47.22,0,0,0-6,8.07c-2.87,4.38-5.72,11.92-7.66,18.49-1,3.28-1.76,6.45-2.39,9.12s-1.07,4.86-1.5,6.18c-1,3.84-1.54,4-2.22,3.25a97.12,97.12,0,0,1,2.51-13.62A103.9,103.9,0,0,1,104,123.64a70.08,70.08,0,0,1,6-11.37,59.07,59.07,0,0,1,9.35-11c6.12-5.11,10.1-5,15.14-5,6.06,0,13.75,5.28,17.16,8.07,3.85,3.15,6.85,7.63,9.13,12.15a55.61,55.61,0,0,1,3,8c1,3,1,11.1,0,16.15-.78,3.91-4,12.11-4,12.11s4.71-11.11,4.94-18.17a50.45,50.45,0,0,0-.4-9.08,59.07,59.07,0,0,0-4.54-12.12,28.56,28.56,0,0,0-7.07-9.08c-2-2-7.06-5-10.93-6.95-4.4-2.16-9.69-2.05-14.3-1.12-2.4.48-5.4,2.3-9.23,5.61a45.56,45.56,0,0,0-8.16,9.65,76,76,0,0,0-6.17,11.81,103,103,0,0,0-7.15,26.32c-.55-.74-1.1-1.5-1.84-.44a10.09,10.09,0,0,0-.76,3.11c-.06,1-.3,1.91-.34,2.86s-.14,1.84-.16,2.57c-.71,5.77-.37,8.31-1.33,8.46s-2.15-2-3-5.18c-.36-1.6-.74-3.43-1-5.47.11-1.56.29-3.1.47-4.61A118,118,0,0,1,93,130.56c1-3.32,2.17-6.58,3.49-9.81a89.5,89.5,0,0,1,4.49-9.52c3.39-6.18,7.58-12.23,13.51-17A27.92,27.92,0,0,1,124.74,89l.72-.2.74-.12s2.48-.32,3-.34c0,0,3.52.13,4.52.22l1.44.55c.79,0,1,0,1,0l.07-.29L134,88.31c-.84-.1-1.71-.17-2.57-.25a23.57,23.57,0,0,0-5.17.37c-3.41.64-14.76,8-17,10.38a70.5,70.5,0,0,0-10.66,16q-2.13,4.26-3.85,8.66c-1.16,2.92-2.17,5.9-3.09,8.9s-1.68,6-2.38,9.09-1.23,6.16-1.62,9.3a59.46,59.46,0,0,1,1.9-18.19,105.91,105.91,0,0,1,9.47-23.39,70.59,70.59,0,0,1,7.2-10.56,43.46,43.46,0,0,1,9.86-8.85,7.82,7.82,0,0,1,2-1.22c3-1,4.13-.76,7.28-1.52l2.39-.43c.8-.11,1.61-.12,2.42-.17a16.14,16.14,0,0,1,2.41.08l1.21.11a10,10,0,0,1,1,.17,30.43,30.43,0,0,0,3.24.76C138.39,87.57,139.15,87.55,139.15,87.55Z"/><path class="cls-6" d="M139.15,87.55c1.25.35,1.28.21,2.54.57s2.46.91,3.69,1.37a33.94,33.94,0,0,1,3.6,1.62l1.77.88c.58.3,1.14.67,1.71,1a47.15,47.15,0,0,1,20.77,55.62,43.8,43.8,0,0,1-7.95,14.18,43.13,43.13,0,0,1-12.83,10.31c1.5-.51.76.09.54.4l-.29.14.29-.14c-.1.14-.09.22.25.12a11.36,11.36,0,0,0,2.25-1.15,11.36,11.36,0,0,1-2.25,1.15c-.34.1-.35,0-.25-.12a42.1,42.1,0,0,0,13-10.16,43.49,43.49,0,0,0,8.1-14.21,47.84,47.84,0,0,0-8.34-45.58,50,50,0,0,0-11.92-10.47l-1.69-1-.85-.51-.88-.45c-1.17-.58-2.34-1.18-3.53-1.75l-3.65-1.44-.91-.35-.93-.29-1.87-.56-1.88-.56a8.74,8.74,0,0,0-1.08-.24l-1.15-.23c-.39-.06-.77-.15-1.16-.19l-1.17-.09a18.68,18.68,0,0,0-2.36-.08c-3.17,0-5.73,2.17-8.55,3.24,2.16-.9,4-2.84,6.45-3.16l1.84-.11.92,0,.92.05,1.85.12c.61.06,1.2.2,1.81.3l.9.17c.3.06.61.12.83.19l1.47.43,2.94.87c1,.32,1.93.73,2.89,1.09a30.64,30.64,0,0,1,2.85,1.19,51.74,51.74,0,0,1,5.5,2.92l1.34.82a10.91,10.91,0,0,1,1.3.87l2.54,1.87.62.47.6.52,1.18,1a26.33,26.33,0,0,1,2.3,2.18l2.17,2.32c.67.83,1.32,1.67,2,2.51a48.41,48.41,0,0,1,9.34,23.52,51,51,0,0,1-.26,12.82,47,47,0,0,1-3.77,12.33,41.2,41.2,0,0,1-7.21,10.8,25,25,0,0,1-2.28,2.32c-.82.72-1.6,1.47-2.45,2.15L158.09,171a13.13,13.13,0,0,1-1.36.88l-1.4.82-1.4.81c-.47.25-1,.46-1.45.69-1,.44-1.94.91-2.93,1.31a49.41,49.41,0,0,1-6.07,1.88A55.06,55.06,0,0,1,131.1,179c-.58,0-1.26-.05-1.89-.09a13.45,13.45,0,0,1-1.9-.2,22.12,22.12,0,0,1-3.73-.93l-1.79-.65c-.57-.26-1.12-.55-1.68-.84a22.5,22.5,0,0,1-3.14-1.92,37,37,0,0,1-9.27-9.9,65.46,65.46,0,0,1-5.87-11.19,100,100,0,0,1-4-11.65c-.17-.68-.42-1.51-.65-2.44l-.7-2.95c-.44-2-.87-4.06-1.1-5.42-.55-5.52,2.85-24.72,2.85-19.39h0c.2-5.29,2.33-9.9,3.63-12.78A22.37,22.37,0,0,1,106.55,92c1.2-1.19,1.6-.45,1.51-.42s-.13.24.8.5c.62.18-1.23,2.36-1.66,3.4s-1.11,3.43-1,8.3c0,2.73.13,5.61.34,8.59s.52,6.07,1,9.22,1,6.36,1.62,9.59,1.47,6.49,2.45,9.69a78.23,78.23,0,0,0,3.47,9.37,45.42,45.42,0,0,0,4.75,8.27,20,20,0,0,0,6,5.61,10.43,10.43,0,0,0,3.12,1.16l.78.15.8,0a13.05,13.05,0,0,0,2.06-.08,37.25,37.25,0,0,0,12.73-2.77,29.54,29.54,0,0,0,10.18-7.1,31.21,31.21,0,0,0,6.47-10.66,35.25,35.25,0,0,0,2-12.7,38.4,38.4,0,0,0-.36-4.52,39.17,39.17,0,0,0-1.06-4.47l-.32-1.11c-.11-.37-.28-.72-.42-1.08-.29-.71-.54-1.45-.87-2.15l-1.05-2.09c-.34-.7-.81-1.33-1.2-2l-.62-1-.71-.93c-.49-.62-.92-1.28-1.45-1.87l-1.6-1.75a7.32,7.32,0,0,0-.84-.83l-.89-.8a41.82,41.82,0,0,0-3.73-3c-.67-.44-1.37-.85-2.05-1.28l-1-.64c-.35-.2-.72-.37-1.09-.55L142.33,101c-.74-.33-1.52-.61-2.28-.92a15.85,15.85,0,0,0-4.69-1.58,10.18,10.18,0,0,0-2-.16h-2l-4,1a29.18,29.18,0,0,1-4,2L117,105.21a47.22,47.22,0,0,0-6,8.07c-2.87,4.38-5.72,11.92-7.66,18.49-1,3.28-1.76,6.45-2.39,9.12s-1.07,4.86-1.5,6.18c-1,3.84-1.54,4-2.22,3.25a97.12,97.12,0,0,1,2.51-13.62A103.9,103.9,0,0,1,104,123.64a70.08,70.08,0,0,1,6-11.37,59.07,59.07,0,0,1,9.35-11c6.12-5.11,10.1-5,15.14-5,6.06,0,13.75,5.28,17.16,8.07,3.85,3.15,6.85,7.63,9.13,12.15a55.61,55.61,0,0,1,3,8c1,3,1,11.1,0,16.15-.78,3.91-4,12.11-4,12.11s4.71-11.11,4.94-18.17a50.45,50.45,0,0,0-.4-9.08,59.07,59.07,0,0,0-4.54-12.12,28.56,28.56,0,0,0-7.07-9.08c-2-2-7.06-5-10.93-6.95-4.4-2.16-9.69-2.05-14.3-1.12-2.4.48-5.4,2.3-9.23,5.61a45.56,45.56,0,0,0-8.16,9.65,76,76,0,0,0-6.17,11.81,103,103,0,0,0-7.15,26.32c-.55-.74-1.1-1.5-1.84-.44a10.09,10.09,0,0,0-.76,3.11c-.06,1-.3,1.91-.34,2.86s-.14,1.84-.16,2.57c-.71,5.77-.37,8.31-1.33,8.46s-2.15-2-3-5.18c-.36-1.6-.74-3.43-1-5.47.11-1.56.29-3.1.47-4.61A118,118,0,0,1,93,130.56c1-3.32,2.17-6.58,3.49-9.81a89.5,89.5,0,0,1,4.49-9.52c3.39-6.18,7.58-12.23,13.51-17A27.92,27.92,0,0,1,124.74,89l.72-.2.74-.12s2.48-.32,3-.34c0,0,3.52.13,4.52.22l1.44.55c.79,0,1,0,1,0l.07-.29L134,88.31c-.84-.1-1.71-.17-2.57-.25a23.57,23.57,0,0,0-5.17.37c-3.41.64-14.76,8-17,10.38a70.5,70.5,0,0,0-10.66,16q-2.13,4.26-3.85,8.66c-1.16,2.92-2.17,5.9-3.09,8.9s-1.68,6-2.38,9.09-1.23,6.16-1.62,9.3a59.46,59.46,0,0,1,1.9-18.19,105.91,105.91,0,0,1,9.47-23.39,70.59,70.59,0,0,1,7.2-10.56,43.46,43.46,0,0,1,9.86-8.85,7.82,7.82,0,0,1,2-1.22c3-1,4.13-.76,7.28-1.52l2.39-.43c.8-.11,1.61-.12,2.42-.17a16.14,16.14,0,0,1,2.41.08l1.21.11a10,10,0,0,1,1,.17,30.43,30.43,0,0,0,3.24.76C138.39,87.57,139.15,87.55,139.15,87.55Z"/></g></g></svg>