<svg xmlns="http://www.w3.org/2000/svg" viewBox="0 0 37 32">
  <!-- White glow -->
  <filter id="glow" x="-50%" y="-50%" width="200%" height="200%">
    <feGaussianBlur stdDeviation="3" result="glow"/>
    <feComposite in="SourceGraphic" in2="glow" operator="over"/>
  </filter>
  
  <!-- Green leaf -->
  <path fill="#1e8a54" style="fill: var(--color1, #1e8a54)" d="M4.364 32c0.008-0.154 0.025-0.32 0.025-0.479q0-7.102 0-14.203c0-0.485 0-0.951 0.309-1.365 0.080-0.133 0.149-0.287 0.197-0.449l0.004-0.014c0.107 0.145 0.057 0.309 0.057 0.463q0 7.552 0 15.103c0 0.496 0 0.496 0.499 0.496h26.183c0.173 0 0.344 0.012 0.517 0.019l0.154 0.133c0.032 0.131 0.233 0.134 0.222 0.298z" filter="url(#glow)"></path>
  <path fill="#24aa67" style="fill: var(--color2, #24aa67)" d="M32.528 32c0.011-0.164-0.19-0.167-0.222-0.298 0.133-0.136 0.071-0.309 0.071-0.463q0-7.134 0-14.271c0-0.154-0.062-0.321 0.069-0.463 0.094 0.107 0.171 0.233 0.224 0.37l0.003 0.008v15.105z" filter="url(#glow)"></path>
  <path fill="#2cda83" style="fill: var(--color3, #2cda83)" d="M32.156 31.569c-0.173 0-0.344-0.019-0.517-0.019h-26.183c-0.499 0-0.499 0-0.499-0.496q0-7.551 0-15.103c0-0.154 0.049-0.323-0.057-0.463-0.713 0.472-1.317 1.081-1.97 1.621-0.028 0.022-0.019 0.088-0.026 0.133-0.21 0.071-0.417 0.154-0.631 0.21-0.548 0.154-1.314-0.136-1.573-0.571-0.221-0.37-0.054-0.98 0.394-1.431 0.034-0.036 0.068-0.071 0.105-0.103 0.337-0.287 0.673-0.576 1.011-0.861 1.419-1.196 2.827-2.408 4.264-3.583 0.451-0.369 0.665-0.743 0.65-1.355-0.053-1.828-0.022-3.657-0.022-5.482 0-0.207-0.028-0.425 0.154-0.587 0.046-0.014 0.113-0.014 0.136-0.045 0.333-0.445 0.838-0.463 1.272-0.463h0.002q5.349 0 10.698 0c0.307 0 0.606 0 0.911 0.003 0.14 0.001 0.321 0.077 0.432 0.164 0.116 0.088 0.175 0.247 0.219 0.392 0.022 0.076 0.083 0.156 0.126 0.224 0.136 0.204 0.283 0.403 0.449 0.586 0.094 0.105 0.223 0.2 0.312 0.313 0.178 0.232 0.205 0.545 0.205 0.848-0.002 5.068 0 10.137 0 15.205z" filter="url(#glow)"></path>
</svg>
