<svg aria-hidden="true" style="position: absolute; width: 0; height: 0; overflow: hidden;" version="1.1" xmlns="http://www.w3.org/2000/svg" xmlns:xlink="http://www.w3.org/1999/xlink">
<defs>
<symbol id="logo" viewBox="0 0 32 32">
<path fill="#fc9" style="fill: var(--color1, #fc9)" d="M31.221 11.856c0.066 3.874 0.050 7.787 0.073 11.328l-0.027-4.247c0.014 2.123-0.016 3.911-0.084 6.078-0.085-0.652-0.018-2.052-0.132-2.391 0-5.184 0.137-10.384 0.261-15.433 0.261 2.005-0.103 3.248-0.092 4.665z"></path>
<path fill="#fc9" style="fill: var(--color1, #fc9)" d="M31.056 30.756c0-0.521 0-1.029 0-1.531 0.007 0.54 0.016 1.065 0 1.531z"></path>
<path fill="#fc9" style="fill: var(--color1, #fc9)" d="M6.011 1.927c-0.587 0.016-1.177 0.030-1.748 0.034 0.574-0.028 1.161-0.028 1.748-0.034z"></path>
<path fill="#fc9" style="fill: var(--color1, #fc9)" d="M30.599 5.054c-0.021-0.311-0.036-0.624-0.050-0.942 0-0.859 0.018-1.721 0.028-2.615l-5.492-0.075c0.82 0 1.655 0 2.5 0l1.451-0.009h1.63c0 0.67 0 1.344-0.014 2.005v0.492l-0.012 0.386c-0.018 0.249-0.028 0.503-0.041 0.757z"></path>
<path fill="#fc9" style="fill: var(--color1, #fc9)" d="M30.359 7.632c0.011 2.43-0.034 4.896-0.149 7.202 0.091-2.306 0.13-4.732 0.149-7.202z"></path>
<path fill="#fc9" style="fill: var(--color1, #fc9)" d="M2.939 15.707c0.023-0.011 0.039 0.036 0.053 0.105 0.005 0.070 0.016 0.134 0.032 0.196l-0.002-0.008q-0.048 1.472-0.092 2.939c-0.011-0.244-0.053-0.469-0.055-0.711 0.034-1.084 0.135-1.31 0.064-2.521z"></path>
<path fill="#fc9" style="fill: var(--color1, #fc9)" d="M6.665 1.92l0.060-0.012 0.597-0.018h0.073c-0.244 0.020-0.485 0.025-0.731 0.030z"></path>
<path fill="#fc9" style="fill: var(--color1, #fc9)" d="M2.951 14.457c0.056-0.021 0.099-0.067 0.117-0.123l0-0.001q-0.023 0.832-0.046 1.668c0-0.066-0.018-0.13-0.028-0.178-0.030-0.379 0.011-0.955-0.043-1.365z"></path>
<path fill="#fc9" style="fill: var(--color1, #fc9)" d="M3.294 3.623c0.023 0 0.028-0.023 0.036-0.048 0.004-0.024 0.012-0.045 0.025-0.063l-0 0 0.142 0.043 0.032 0.009h0.036l0.356 0.020c0.473 0.025 0.967 0.048 1.502 0.066 0.165-0.023 0.516-0.025 0.846-0.068 0.196 0.034 0.409 0.062 0.631 0.089l-2.597-0.016h-0.823l-0.178-0.012-0.011 0.123v0.101-0.105c0-0.050 0-0.098 0-0.142z"></path>
<path fill="#ff8230" style="fill: var(--color2, #ff8230)" d="M29.662 30.295c-3.134 0.062-6.756-0.164-9.806 0.066 3.58 0.142 8.524 0.194 9.052 0.564s-4.903 0.034-7.705 0.053l0.74 0.078c-0.208-0.032-0.447-0.050-0.691-0.050-0.132 0-0.263 0.005-0.393 0.016l0.017-0.001c0.741 0.078 2.18 0.153 2.59 0.276l-0.66 0.087c1.89 0.279 5.431 0.338 7.321 0.617-3.966-0.386-8.603-0.533-13.492-0.574-2.443-0.020-4.949-0.012-7.467 0l-8.281 0.087q-0.021-2.816-0.043-5.548c-0.126-6.332-0.453-12.21-0.82-17.716-0.027-0.521-0.027-1.404-0.027-2.382 0.011-1.244 0.021-2.619 0.032-3.76 0-0.596-0.012-1.191-0.020-1.778l3.733-0.046 2.105-0.052c1.397-0.053 2.795-0.098 4.183-0.164 3.3-0.085 6.544-0.068 9.844-0.050l5.012 0.037 2.558 0.011h4.553c0 0.681-0.021 1.431-0.055 2.052-0.015 0.484-0.061 0.944-0.136 1.394l0.008-0.060c-0.048 0.217-0.1 0.155-0.148-0.297s-0.089-1.289-0.117-2.636h-0.356l-5.596 0.133q-2.169 0.043-4.35 0.041c0.338-0.114 1.721-0.046 2.366-0.132-2.142-0.069-3.911-0.1-6.012-0.085l4.201-0.028c-3.5 0.025-7.372 0.009-11.2 0.076-1.403 0.009-2.629-0.356-4.613-0.094 4.994 0.126 10.133 0.267 15.264 0.263h-0.025c2.286-0.014 4.356 0 6.562 0-0.686 0.014-1.385 0.036-1.989 0.016q1.084 0.036 2.167 0.059h0.725l0.86 0.011 1.705 0.018q-0.025 3.223-0.048 6.434-0.057-1.282-0.101-2.606c0-0.22-0.012-0.441-0.018-0.663l-0.018-0.965c-0.009-0.658-0.020-1.317-0.028-1.979l-3.749 0.052-2.855 0.021c-1.911 0-3.833 0-5.749 0-3.835 0-7.644-0.014-11.316 0.044 2.549 0.19 5.934-0.082 8.155 0.153-2.078 0-4.158 0-6.254-0.020l-6.578-0.060 0.651-0.021h0.29l0.231-0.014-0.272-0.032-0.377-0.012-0.807-0.018c-0.542-0.011-1.092-0.018-1.643-0.021 0 0.711 0 1.433 0 2.155l0.011 1.696c0 0.994 0.014 1.98 0 2.942 0 0.24 0 0.476-0.011 0.711l0.011-0.711q0.023-1.504 0.046-2.987c0.012-0.804 0.027-2.404 0.039-3.708l1.836 0.016c-0.58 0.018-1.166 0.028-1.788 0.034 0 0.489 0 0.99 0 1.516 0 0.261 0 0.533 0 0.807l-0.011 0.709 0.023-0.238 0.011-0.117v-0.178c0.012-0.24 0.023-0.491 0.034-0.75 0.020-0.517 0.036-1.067 0.050-1.627l0.791 0.018 2.507 0.011 2.096 0.014c-0.82 0-1.634 0.012-2.436 0.030l-1.387 0.028-1.433 0.037c0.018 0.626 0.037 1.23 0.060 1.804 0.011-0.567 0.021-1.136 0.032-1.712l7.812 0.091-4.836 0.044-2.864-0.036c-0.021 1.943-0.041 3.911-0.062 5.906v-0.32 0.635q-0.011 1.632-0.021 3.28c0 0.987 0.053 1.956 0.112 2.916v0.489c-0.036-0.309-0.071-0.459-0.091 0.137-0.107 2.539 0.076 5.291-0.060 8.204-0.037 0.764-0.018 1.796 0.012 2.907-0.010 0.074-0.015 0.161-0.015 0.248 0 0.125 0.011 0.248 0.033 0.367l-0.002-0.012c0 0.24 0.014 0.482 0.020 0.724v0.889l0.009 0.441 0.016 0.457v-0.453c0-0.146 0-0.293 0-0.441l-0.021-0.889v-0.661c0.044 0.186 0.069 0.4 0.069 0.619 0 0.007-0 0.013-0 0.020v-0.001c0.025-4.075 0.068-8.3 0.050-12.549 0.030 0.254 0.059 0.615 0.078 0.764l-0.080-1.244q-0.011-2.059-0.041-4.117c0.021 0.409 0.050 0.789 0.094 1.124q0.011-2.281 0-4.569-0.032-2.409-0.044-4.811l2.809-0.021c3.653 0.052 7.271 0.107 10.878 0.144-1.941-0.108-3.975-0.158-6.044-0.188 5.511-0.048 11.022-0.075 16.512 0.036-0.99 0.13-2.352 0.224-2.972 0.395 0.039 0.082 1.81 0.112 0.779 0.16-3.753 0.235-6.444 0.027-7.977 0.494-0.288 0.126 3.911 0.574 2.56 0.667-1.138 0.043-3.172 0.084-5.365 0.112-0.633-0.012-1.291-0.018-1.97-0.020-0.145 0.001-0.285 0.018-0.42 0.049l0.013-0.002c-2.377 0.021-4.642 0.023-5.895 0l-0.699-0.012h-0.19c-0.069-0.033-0.127-0.067-0.183-0.104l0.005 0.003c-0.030 0.021-0.065 0.042-0.102 0.060l-0.005 0.002 0.011 0.046-0.016 0.178v0.268c-0.009 0.617-0.016 1.232-0.025 1.844-0.039 0.681-0.085 1.36-0.119 2.034 0.030-0.014 0.069-0.123 0.098 0-0.011 1.534-0.020 3.054-0.030 4.574-0.037 0.617-0.092 1.184-0.178 1.685 0.26 1.65 0.098 5.458 0.137 8.103v0q0 1.995-0.014 4.030c-0.025 0.224-0.053 0.437-0.089 0.636 0.044 0.336 0.046 0.69 0.068 0.857-0.009 0.27-0.020 0.533-0.028 0.782l-0.009 0.187v0.119l-0.018 0.119c-0.025 0.16-0.053 0.334-0.082 0.533 0.004 0.007 0.010 0.013 0.016 0.018l0 0c0.092-0.041 0.2-0.074 0.312-0.093l0.008-0.001c0.107 0 0.215 0 0.32 0h0.905l2.359 0.032c2.679 0.046 5.314 0.108 7.925 0.178 0.057 0.020 0.101 0.062 0.124 0.116l0.001 0.001c0.405-0.053 0.974-0.011 1.337-0.041-0.069 0.014-0.112 0.030-0.101 0.053 1.195-0.069 1.422 0.032 2.489 0.068 0.242 0 0.468-0.044 0.711-0.057l0.356 0.012c1.214 0.187 2.423 0.124 3.778 0.13l4.052 0.146c1.061 0.020 1.47 0.148 2.212 0.22z"></path>
<path fill="#fc9" style="fill: var(--color1, #fc9)" d="M2.917 19.298c-0.043 1.278-0.085 2.549-0.13 3.82 0.007-1.367-0.055-2.59 0.13-3.82z"></path>
<path fill="#fc9" style="fill: var(--color1, #fc9)" d="M18.898 3.556c0.498 0.078 1.067 0.135 1.669 0.178l-9.678-0.025v-0.011c2.612-0.050 6.377 0.112 8.009-0.142z"></path>
<path fill="#fc9" style="fill: var(--color1, #fc9)" d="M2.992 15.812c0.011 0.050 0.020 0.114 0.028 0.178v0.011c-0.014-0.055-0.024-0.119-0.028-0.185l-0-0.003z"></path>
<path fill="#fc9" style="fill: var(--color1, #fc9)" d="M25.067 1.956h0.311q-1.18 0.028-2.366 0.048c0.622-0.039 1.324-0.048 2.055-0.048z"></path>
<path fill="#fc9" style="fill: var(--color1, #fc9)" d="M30.034 5.412q0.021 2.443 0.044 4.885c-0.032 2.094-0.080 4.151-0.187 6.114 0.036-3.646 0.091-7.303 0.142-10.999z"></path>
<path fill="#fc9" style="fill: var(--color1, #fc9)" d="M25.097 3.653c0.665 0.034 1.337 0.080 2.012 0.119l-2.018-0.021c0.126-0.028 0.020-0.068 0.005-0.098z"></path>
<path fill="#fc9" style="fill: var(--color1, #fc9)" d="M18.444 2.041h0.484l-1.244 0.080c0.155-0.021 0.512-0.050 0.761-0.080z"></path>
<path fill="#fc9" style="fill: var(--color1, #fc9)" d="M28.244 4.107v-0.217l0.014-0.032c0 0 0 0 0 0 0.026 0 0.050 0.007 0.071 0.018l-0.001-0c-0.016 0.008-0.035 0.016-0.054 0.022l-0.003 0.001h-0.012v0.032z"></path>
<path fill="#fc9" style="fill: var(--color1, #fc9)" d="M28.254 11.883c0 0.686 0 1.351-0.020 1.989 0-0.791-0.018-1.6-0.027-2.402 0.027 0.123 0.044 0.265 0.046 0.411l0 0.002z"></path>
<path fill="#3ff" style="fill: var(--color3, #3ff)" d="M17.036 8.418c0.222 0.064 0.398 0.128 0.619 0.19s0.434 0.16 0.651 0.242c0.253 0.096 0.462 0.192 0.664 0.301l-0.029-0.014 0.311 0.155c0.103 0.052 0.201 0.117 0.302 0.178 2.465 1.471 4.089 4.124 4.089 7.157 0 0.945-0.158 1.853-0.448 2.699l0.017-0.058c-0.329 0.958-0.805 1.785-1.41 2.5l0.009-0.011c-0.623 0.739-1.371 1.349-2.216 1.804l-0.040 0.020c0.263-0.091 0.133 0.016 0.094 0.071v0c-0.016 0.025-0.016 0.039 0.046 0.020 0.15-0.058 0.28-0.126 0.4-0.207l-0.007 0.004c-0.114 0.076-0.244 0.144-0.381 0.196l-0.013 0.004c-0.062 0.020-0.062 0-0.046-0.020 0.896-0.456 1.655-1.054 2.278-1.772l0.008-0.009c0.606-0.707 1.089-1.539 1.406-2.449l0.016-0.054c0.279-0.801 0.439-1.725 0.439-2.686 0-2.035-0.721-3.901-1.921-5.357l0.012 0.014c-0.596-0.719-1.289-1.33-2.064-1.822l-0.036-0.021-0.297-0.178-0.149-0.091-0.155-0.078c-0.206-0.103-0.412-0.208-0.622-0.308l-0.642-0.254-0.162-0.062-0.16-0.062-0.329-0.103-0.331-0.1c-0.050-0.016-0.126-0.028-0.192-0.043l-0.203-0.036c-0.068-0.011-0.135-0.027-0.203-0.034l-0.208-0.016c-0.095-0.010-0.206-0.016-0.318-0.016-0.034 0-0.068 0.001-0.102 0.002l0.005-0c-0.579 0.013-1.127 0.13-1.631 0.333l0.031-0.011c0.357-0.144 0.772-0.252 1.204-0.305l0.024-0.002 0.324-0.020h0.325l0.324 0.021c0.108 0 0.213 0.034 0.32 0.053l0.158 0.030c0.056 0.008 0.106 0.020 0.154 0.036l-0.007-0.002 0.258 0.075 0.517 0.153c0.178 0.057 0.34 0.128 0.508 0.192 0.206 0.074 0.372 0.144 0.534 0.223l-0.031-0.014c0.383 0.175 0.701 0.347 1.006 0.537l-0.038-0.022 0.235 0.142c0.089 0.052 0.165 0.102 0.237 0.157l-0.006-0.004 0.453 0.332 0.11 0.084 0.105 0.091 0.208 0.178c0.147 0.122 0.279 0.248 0.403 0.381l0.002 0.003 0.382 0.409c0.117 0.144 0.233 0.293 0.356 0.441 0.869 1.156 1.455 2.572 1.63 4.112l0.004 0.039c0.032 0.286 0.051 0.618 0.051 0.954 0 0.46-0.035 0.912-0.101 1.354l0.006-0.050c-0.133 0.813-0.365 1.543-0.688 2.222l0.021-0.050c-0.34 0.731-0.765 1.358-1.274 1.907l0.004-0.005c-0.128 0.147-0.259 0.28-0.398 0.405l-0.004 0.004c-0.144 0.126-0.283 0.26-0.432 0.379l-0.462 0.338c-0.069 0.052-0.147 0.103-0.228 0.149l-0.010 0.005-0.245 0.144-0.247 0.144c-0.084 0.044-0.178 0.080-0.256 0.121-0.178 0.078-0.343 0.16-0.517 0.231-0.287 0.115-0.642 0.228-1.008 0.318l-0.059 0.012c-0.652 0.165-1.402 0.263-2.174 0.272l-0.006 0c-0.103 0-0.222-0.011-0.332-0.016-0.123-0.005-0.239-0.018-0.352-0.038l0.016 0.002c-0.25-0.040-0.471-0.097-0.683-0.172l0.027 0.008-0.316-0.116c-0.101-0.046-0.197-0.096-0.295-0.146-0.212-0.109-0.393-0.222-0.564-0.348l0.011 0.008c-0.65-0.482-1.194-1.062-1.622-1.725l-0.016-0.026c-0.375-0.561-0.722-1.204-1.006-1.88l-0.028-0.076c-0.235-0.547-0.473-1.229-0.668-1.929l-0.029-0.123c-0.032-0.119-0.075-0.267-0.116-0.428l-0.124-0.521c-0.076-0.356-0.153-0.711-0.194-0.955-0.096-0.972 0.501-4.354 0.503-3.415v0c0.036-0.932 0.411-1.744 0.638-2.251 0.211-0.452 0.487-0.838 0.821-1.166l0.001-0.001c0.212-0.21 0.1 0.091 0.267-0.073 0 0-0.023 0.041 0.14 0.087 0.11 0.032-0.217 0.416-0.292 0.597s-0.197 0.604-0.178 1.463c0 0.482 0.021 0.988 0.059 1.515s0.092 1.067 0.167 1.621 0.178 1.122 0.286 1.691 0.26 1.141 0.432 1.705c0.196 0.66 0.401 1.207 0.638 1.736l-0.035-0.088c0.249 0.557 0.529 1.036 0.853 1.48l-0.016-0.023c0.28 0.398 0.629 0.728 1.032 0.978l0.015 0.009c0.159 0.092 0.343 0.163 0.539 0.202l0.012 0.002 0.137 0.027h0.14c0.026 0.001 0.057 0.002 0.087 0.002 0.095 0 0.188-0.006 0.279-0.017l-0.011 0.001c0.816-0.032 1.581-0.208 2.285-0.503l-0.043 0.016c0.703-0.299 1.301-0.72 1.793-1.242l0.002-0.003c0.485-0.526 0.872-1.151 1.125-1.841l0.012-0.038c0.227-0.617 0.358-1.33 0.358-2.073 0-0.057-0.001-0.115-0.002-0.172l0 0.008c-0.005-0.286-0.028-0.561-0.068-0.831l0.004 0.035c-0.051-0.31-0.113-0.575-0.19-0.833l0.012 0.048-0.064-0.21c-0.020-0.066-0.050-0.128-0.073-0.192-0.053-0.124-0.096-0.256-0.155-0.379l-0.178-0.368c-0.059-0.123-0.142-0.235-0.212-0.356l-0.108-0.178-0.126-0.164c-0.085-0.108-0.162-0.226-0.254-0.329l-0.281-0.308c-0.047-0.053-0.095-0.101-0.147-0.146l-0.002-0.002-0.156-0.14c-0.198-0.182-0.413-0.357-0.637-0.519l-0.021-0.014c-0.117-0.078-0.24-0.151-0.356-0.226l-0.178-0.114c-0.062-0.034-0.128-0.064-0.19-0.098l-0.393-0.178c-0.132-0.059-0.268-0.107-0.402-0.162-0.216-0.091-0.49-0.186-0.772-0.266l-0.055-0.013c-0.096-0.032-0.215-0.063-0.338-0.086l-0.018-0.003c-0.050-0.012-0.108-0.019-0.167-0.020h-0l-0.183-0.009c-0.002 0-0.005 0-0.007 0-0.24 0-0.473 0.032-0.694 0.093l0.018-0.004c-0.524 0.15-0.979 0.391-1.371 0.706l0.008-0.006c-0.454 0.352-0.854 0.735-1.212 1.155l-0.009 0.011c-0.613 0.772-1.138 1.655-1.537 2.603l-0.028 0.074c-0.213 0.498-0.391 0.983-0.533 1.392s-0.258 0.741-0.345 0.942c-0.219 0.585-0.316 0.594-0.42 0.471 0.178-0.816 0.394-1.516 0.659-2.191l-0.033 0.097c0.295-0.774 0.602-1.422 0.951-2.042l-0.039 0.076c0.373-0.676 0.768-1.257 1.21-1.799l-0.017 0.021c0.435-0.534 0.929-0.995 1.479-1.382l0.023-0.015c0.684-0.436 1.442-0.686 2.169-0.587 0.447 0.084 0.838 0.195 1.214 0.336l-0.049-0.016 0.585 0.236c0.178 0.091 0.372 0.19 0.556 0.284 0.744 0.414 1.377 0.93 1.906 1.54l0.007 0.009c0.514 0.595 0.924 1.297 1.193 2.065l0.014 0.045c-0.268-0.807-0.665-1.504-1.172-2.105l0.008 0.009c-0.527-0.627-1.152-1.151-1.855-1.556l-0.033-0.018-0.562-0.286-0.587-0.238c-0.081-0.035-0.182-0.070-0.285-0.097l-0.017-0.004-0.306-0.094-0.229-0.069c-0.025 0-0.046 0-0.069-0.014-0.092-0.016-0.178-0.037-0.276-0.053-0.74-0.096-1.511 0.151-2.203 0.604-0.576 0.397-1.073 0.852-1.502 1.366l-0.010 0.012c-0.433 0.514-0.834 1.085-1.182 1.691l-0.030 0.057c-0.711 1.244-1.456-0.048-1.186-0.533 0.301-0.552 0.595-1.017 0.916-1.462l-0.027 0.039c0.676-0.975 1.516-1.785 2.486-2.409l0.035-0.021c0.517-0.322 1.125-0.553 1.776-0.653l0.027-0.003 0.123-0.020h0.126l0.251-0.011c0.038-0.003 0.082-0.005 0.126-0.005s0.088 0.002 0.132 0.005l-0.006-0 0.254 0.020c0.167 0.020 0.332 0.060 0.498 0.092s0.292 0.087 0.437 0.132c0.496 0.157 0.898 0.313 1.289 0.489l-0.075-0.030 0.594 0.3c0.116 0.057 0.212 0.113 0.304 0.174l-0.011-0.007 0.288 0.178c0.794 0.511 1.471 1.12 2.039 1.821l0.012 0.016c1.087 1.349 1.745 3.085 1.745 4.973 0 0.048-0 0.096-0.001 0.143l0-0.007c0.003-0.078 0.004-0.17 0.004-0.262 0-1.015-0.193-1.986-0.546-2.876l0.018 0.053c-0.404-1.031-0.975-1.914-1.69-2.659l0.003 0.003c-0.713-0.74-1.557-1.349-2.494-1.791l-0.052-0.022-0.178-0.087c-0.059-0.027-0.121-0.048-0.178-0.073l-0.356-0.142c-0.188-0.078-0.432-0.161-0.681-0.231l-0.052-0.013-0.37-0.108c-0.139-0.030-0.284-0.057-0.427-0.084-0.171-0.025-0.368-0.040-0.568-0.040-0.107 0-0.212 0.004-0.317 0.012l0.014-0.001c-0.605 0.052-1.161 0.213-1.664 0.464l0.027-0.012c-0.517 0.254-0.963 0.55-1.365 0.896l0.008-0.007c-0.778 0.675-1.45 1.441-2.010 2.289l-0.026 0.042c-0.279 0.421-0.533 0.853-0.773 1.294s0.128-1.083 0.933-2.169c0.42-0.57 0.868-1.072 1.359-1.528l0.007-0.006c0.51-0.481 1.096-0.889 1.736-1.205l0.042-0.019 0.085 0.178c0.44-0.222 0.95-0.384 1.489-0.458l0.025-0.003 0.407-0.027c0.135 0 0.272 0 0.407 0.014 0.15 0.010 0.288 0.029 0.423 0.057l-0.020-0.003 0.199 0.037c0.070 0.013 0.129 0.028 0.188 0.047l-0.010-0.003z"></path>
<path fill="#6ff" style="fill: var(--color4, #6ff)" opacity="0.96" d="M11.486 10.268c-0.052 0.057-0.023 0.132-0.071 0.19-0.453 0.545-0.873 1.154-1.237 1.798l-0.032 0.062c-0.665 1.181-1.235 2.549-1.638 3.987l-0.032 0.132c-0.22 0.807-0.347 1.733-0.347 2.688 0 0.18 0.004 0.359 0.013 0.537l-0.001-0.025c0.069-0.553 0.178-1.097 0.286-1.637s0.258-1.067 0.42-1.6 0.34-1.052 0.544-1.566 0.428-1.026 0.677-1.525c0.388-0.772 0.697-1.456 1.244-2.153 0.023-0.268 0.123-0.62 0.172-0.887z"></path>
<path fill="#6ff" style="fill: var(--color4, #6ff)" opacity="0.96" d="M11.486 13.824c-0.156 0.283-0.316 0.626-0.455 0.98l-0.021 0.062c-0.263 0.622-0.523 1.388-0.729 2.175l-0.028 0.125c-0.184 0.673-0.339 1.488-0.434 2.321l-0.007 0.078c0.119 0.124 0.22 0.105 0.391-0.572 0.075-0.233 0.158-0.615 0.265-1.088s0.247-1.029 0.42-1.6c0.212-0.711 0.393-1.234 0.599-1.94 0.059-0.208 0.101-0.42 0-0.54z"></path>
<path fill="#6ff" style="fill: var(--color4, #6ff)" opacity="0.96" d="M11.428 11.317c-0.338 0.4-0.649 0.846-0.916 1.32l-0.022 0.043c-0.255 0.451-0.521 1.002-0.755 1.57l-0.038 0.105c-0.24 0.578-0.452 1.145-0.629 1.728-0.33 1.024-0.599 2.241-0.757 3.492l-0.011 0.102c-0.032 0.267-0.064 0.533-0.082 0.812 0.048 0.356 0.116 0.681 0.178 0.964 0.158 0.556 0.382 0.942 0.533 0.914s0.11-0.475 0.235-1.492c0-0.128 0.025-0.284 0.028-0.453s0.050-0.334 0.060-0.501c0.017-0.202 0.064-0.388 0.138-0.561l-0.004 0.012c0.132-0.178 0.228-0.053 0.324 0.078 0.235-1.727 0.677-3.29 1.306-4.754l-0.045 0.118c0.178-0.407 0.356-0.805 0.567-1.191-0.092-0.463-0.144-0.995-0.144-1.539 0-0.27 0.013-0.537 0.038-0.8l-0.003 0.034z"></path>
</symbol>
<symbol id="home" viewBox="0 0 36 32">
<path fill="#3f9" style="fill: var(--color5, #3f9)" d="M31.756 32h-27.336v-16.948l-2.192 1.924c-0.4 0.332-1.272 0.456-1.636 0.116l-0.4-0.264c-0.4-0.4-0.1-1.24 0.336-1.6l6.032-5.304v-6.6c0.040-0.599 0.536-1.069 1.142-1.069 0.021 0 0.041 0.001 0.061 0.002l-0.003-0h0.3c0.018-0.001 0.038-0.002 0.059-0.002 0.537 0 0.977 0.415 1.017 0.942l0 0.003 0.020 4.4 8.844-7.6 17.648 15.524c0.214 0.18 0.349 0.448 0.349 0.748s-0.135 0.568-0.348 0.747l-0.001 0.001-0.112 0.1c-0.239 0.203-0.551 0.327-0.892 0.327s-0.653-0.124-0.894-0.329l0.002 0.002-2-1.752zM7.824 29.048h20.528v-15.928l-10.32-8.604-10.208 8.284z"></path>
<path fill="#3f9" style="fill: var(--color5, #3f9)" d="M18.876 26.556c-1.044 0-2.38-0.368-3.972-1.568-0.129-0.093-0.29-0.149-0.465-0.149-0.263 0-0.496 0.127-0.642 0.323l-0.002 0.002-0.536 0.748-0.468 0.4h-0.392l-0.432-0.2-0.28-0.308-0.128-0.4 0.028-0.36 0.076-0.16 0.736-1.060c0.102-0.141 0.162-0.318 0.162-0.508 0-0.227-0.086-0.433-0.227-0.589l0.001 0.001c-1.888-2.036-1.848-3.76-1.416-4.908 1.328-3.512 7.6-5.080 12.916-4.564l0.836 0.080v0.884c0 0.188-0.064 4.608-1.104 8.072-0.68 2.2-1.948 3.66-3.568 4.108-0.337 0.099-0.724 0.156-1.124 0.156h-0zM15.908 22.304c-0.106 0.143-0.17 0.324-0.17 0.519 0 0.286 0.137 0.539 0.348 0.699l0.002 0.002c1.288 0.936 2.476 1.3 3.428 1.036 1.016-0.284 1.832-1.292 2.3-2.844 0.474-1.675 0.808-3.627 0.932-5.635l0.004-0.081c0.002-0.022 0.003-0.047 0.003-0.072 0-0.449-0.356-0.816-0.802-0.831l-0.001-0c-4.4 0-8.584 1.468-9.332 3.448-0.4 1.104 0.4 2.284 1.368 3.2l0.048-0.068s2.576-2.092 3.2-2.588c0.719-0.586 1.578-1.030 2.517-1.277l0.047-0.011c0.116 0 0.504 0.4 0.46 0.512-0.104 0.256-1.18 0.992-1.632 1.424-0.376 0.356-1.832 1.6-1.92 1.688z"></path>
</symbol>
<symbol id="man-laptop" viewBox="0 0 46 32">
<path fill="#3f9" style="fill: var(--color5, #3f9)" d="M2.236 8.336l-0.636-0.064c-0.028-0.263-0.044-0.568-0.044-0.877 0-1.324 0.295-2.58 0.823-3.704l-0.023 0.053c0.042-0.083 0.103-0.15 0.178-0.199l0.002-0.001c2.128-1.368 4.4-2.024 6.884-1.316 0.92 0.26 1.768 0.8 2.648 1.2l0.228 0.112 0.104-0.096c-0.341-0.368-0.695-0.709-1.067-1.030l-0.017-0.014c-0.99-0.724-2.23-1.158-3.573-1.158-0.414 0-0.819 0.041-1.21 0.12l0.039-0.007c-1.265 0.246-2.314 0.515-3.339 0.835l0.219-0.059c0.491-0.539 1.085-0.976 1.75-1.282l0.034-0.014c1.668-0.772 3.404-1.096 5.196-0.596 2.036 0.56 3.276 2.072 4.064 4.024 0.244 0.612 0.4 1.268 0.616 1.892 0.044 0.128 0.216 0.224 0.348 0.292 0.047 0.010 0.101 0.015 0.156 0.015s0.109-0.006 0.161-0.016l-0.005 0.001c0.86 0 1.244 0.62 0.84 1.436-0.096 0.192-0.4 0.308-0.652 0.376-0.202 0.037-0.435 0.059-0.673 0.059-0.053 0-0.106-0.001-0.159-0.003l0.008 0c0.208 2.6-0.536 4.8-2.496 6.428-1.052 0.913-2.436 1.47-3.949 1.47-0.119 0-0.238-0.003-0.356-0.010l0.016 0.001c-3.372-0.14-6.608-3.352-6.116-7.868zM8.712 8.3c-1.6 0-3.2 0-4.8 0-0.364 0-0.528 0.108-0.516 0.488 0 0.48 0 0.964 0.040 1.436 0.292 2.692 2.772 4.912 5.328 4.8 3.176-0.14 5.528-3 5.2-6.296-0.036-0.364-0.164-0.428-0.472-0.424-1.58 0.004-3.18-0.004-4.78-0.004z"></path>
<path fill="#fcffda" style="fill: var(--color6, #fcffda)" d="M17.856 20.46c0.208-1.036 0.4-2 0.612-3.004 0.496-2.4 1.004-4.8 1.492-7.236 0.060-0.3 0.148-0.4 0.46-0.4 3.056 0.224 6.112 0.428 9.168 0.64l4.204 0.3c0.1 0 0.2 0.028 0.352 0.048-1.024 4.508-2.044 8.988-3.076 13.532zM26.576 12.028c-0.365-0.135-0.786-0.213-1.226-0.213-0.668 0-1.294 0.18-1.832 0.494l0.017-0.009c-1.389 0.797-2.31 2.272-2.31 3.961 0 0.080 0.002 0.159 0.006 0.238l-0-0.011c-0.001 0.041-0.002 0.090-0.002 0.138 0 1.708 0.948 3.194 2.347 3.962l0.023 0.012c0.53 0.29 1.16 0.461 1.831 0.461 1.356 0 2.549-0.698 3.24-1.754l0.009-0.015-1.956-1.668c-0.8 0.8-1.512 0.916-2.244 0.448-0.519-0.354-0.854-0.943-0.854-1.61 0-0.209 0.033-0.411 0.094-0.6l-0.004 0.014c0.308-1.024 1.040-1.448 2.112-1.3zM26.288 14.484c0.707 0.328 1.188 1.032 1.188 1.848 0 0.336-0.081 0.652-0.225 0.931l0.005-0.011c-0.020 0.041-0.032 0.089-0.032 0.14s0.012 0.099 0.033 0.142l-0.001-0.002c0.62 0.544 1.252 1.076 1.884 1.6 1.936-2.748 0.44-6.6-2.12-7.2z"></path>
<path fill="#3fa9f5" style="fill: var(--color7, #3fa9f5)" d="M26.576 12.028l-0.748 2.548c-1.072-0.148-1.804 0.276-2.112 1.3-0.057 0.175-0.090 0.377-0.090 0.586 0 0.667 0.336 1.256 0.848 1.606l0.007 0.004c0.732 0.468 1.428 0.336 2.244-0.448l1.956 1.668c-0.7 1.071-1.893 1.769-3.249 1.769-0.671 0-1.301-0.171-1.851-0.471l0.020 0.010c-1.411-0.782-2.35-2.263-2.35-3.963 0-0.052 0.001-0.105 0.003-0.157l-0 0.008c-0.004-0.068-0.006-0.147-0.006-0.227 0-1.69 0.921-3.164 2.288-3.95l0.022-0.012c0.519-0.302 1.142-0.48 1.807-0.48 0.435 0 0.852 0.076 1.238 0.216l-0.025-0.008z"></path>
<path fill="#3fa9f5" style="fill: var(--color7, #3fa9f5)" d="M26.288 14.484l0.744-2.544c2.56 0.604 4.056 4.456 2.12 7.2-0.632-0.536-1.264-1.068-1.884-1.6-0.020-0.041-0.032-0.089-0.032-0.14s0.012-0.099 0.033-0.142l-0.001 0.002c0.139-0.268 0.221-0.585 0.221-0.922 0-0.821-0.487-1.529-1.188-1.849l-0.013-0.005z"></path>
<path fill="#3fa9f5" style="fill: var(--color7, #3fa9f5)" d="M16.908 29.924c9.488 0 19.484-0.036 29.028-0.036 0 0.612 0 1.2 0 1.748 0 0.084-0.256 0.22-0.4 0.22-2.4 0-4.8 0-7.18 0h-20.4c-0.148 0-0.872-0.024-1.064 0zM17.868 20.496l13.2 3.892c1.032-4.548 2.052-9.024 3.076-13.532-0.152 0-0.252-0.040-0.352-0.048l-4.192-0.296c-3.056-0.212-6.112-0.4-9.168-0.64-0.312-0.020-0.4 0.084-0.46 0.4-0.488 2.4-0.996 4.824-1.492 7.236-0.224 0.972-0.424 1.956-0.632 2.992zM16.984 20.8c0.8-4 1.6-7.98 2.4-12 0.344 0 0.684 0 1.020 0 1.88 0.108 3.76 0.236 5.64 0.328 0.277-0.006 0.537-0.078 0.765-0.2l-0.009 0.004c0.267-0.17 0.579-0.34 0.903-0.488l0.049-0.020c0.471-0.143 0.822-0.541 0.895-1.029l0.001-0.007c0.007-0.043 0.011-0.093 0.011-0.143 0-0.138-0.029-0.269-0.081-0.387l0.002 0.006c-0.26-0.66-0.54-1.312-0.8-1.968-0.060-0.105-0.095-0.23-0.095-0.363 0-0.239 0.114-0.452 0.29-0.587l0.002-0.001c0.378-0.336 0.722-0.689 1.039-1.065l0.013-0.015c0.142-0.197 0.37-0.323 0.628-0.323 0.136 0 0.264 0.035 0.376 0.097l-0.004-0.002c0.652 0.272 1.308 0.532 1.96 0.8 0.098 0.029 0.21 0.046 0.326 0.046 0.469 0 0.873-0.276 1.059-0.675l0.003-0.007c0.26-0.664 0.524-1.324 0.8-2 0.081-0.313 0.361-0.54 0.694-0.54 0.037 0 0.074 0.003 0.11 0.008l-0.004-0.001c0.228 0.017 0.494 0.027 0.762 0.027s0.534-0.010 0.797-0.029l-0.035 0.002c0.021-0.002 0.045-0.003 0.070-0.003 0.353 0 0.65 0.242 0.733 0.57l0.001 0.005c0.272 0.656 0.552 1.308 0.824 1.964 0.193 0.393 0.59 0.659 1.049 0.659 0.143 0 0.281-0.026 0.407-0.073l-0.008 0.003c0.632-0.28 1.268-0.544 1.9-0.828 0.103-0.061 0.228-0.097 0.361-0.097 0.244 0 0.459 0.121 0.59 0.307l0.002 0.002c0.342 0.402 0.698 0.765 1.077 1.102l0.011 0.010c0.176 0.135 0.288 0.346 0.288 0.582 0 0.119-0.028 0.231-0.078 0.33l0.002-0.004c-0.256 0.664-0.512 1.328-0.776 2-0.047 0.123-0.074 0.266-0.074 0.415 0 0.49 0.294 0.911 0.714 1.098l0.008 0.003c0.628 0.248 1.252 0.508 1.876 0.764 0.307 0.089 0.527 0.367 0.527 0.697 0 0.036-0.003 0.072-0.008 0.107l0-0.004c-0.017 0.239-0.026 0.519-0.026 0.8s0.009 0.561 0.028 0.838l-0.002-0.038c0.005 0.033 0.008 0.070 0.008 0.108 0 0.318-0.203 0.589-0.487 0.69l-0.005 0.002-2 0.892c-0.367 0.21-0.611 0.599-0.611 1.045 0 0.137 0.023 0.269 0.065 0.391l-0.003-0.008q0.4 0.984 0.8 1.964c0.056 0.104 0.089 0.228 0.089 0.359 0 0.241-0.111 0.455-0.284 0.596l-0.001 0.001c-0.396 0.364-0.763 0.736-1.111 1.125l-0.014 0.015c-0.125 0.166-0.321 0.271-0.542 0.271-0.11 0-0.214-0.026-0.306-0.073l0.004 0.002-2.044-0.856c-0.094-0.026-0.202-0.042-0.314-0.042-0.474 0-0.884 0.275-1.079 0.675l-0.003 0.007c-0.264 0.676-0.536 1.352-0.8 2.024-0.128 0.316-0.4 0.332-0.692 0.456-0.451 0.107-0.997 0.195-1.554 0.245l-0.046 0.003c-0.548 0-1.256-1.168-1.544-1.156 0 0 1.444-6.036 1.388-6.056s0.268 0.144 1.644 0.036c1.772-0.14 2.904-2.036 2.728-3.876-0.205-1.788-1.695-3.168-3.513-3.2l-0.003-0c-1.432-0.020-3.084 1.2-3.2 2.4l3.16 0.184c-0.036 0.212-0.052 0.352-0.080 0.488-1.096 4.776-2.448 10.612-3.544 15.412-0.088 0.292-1.964 0.8-1.964 0.8l-9.128 2.212c-0.744 0.204-1.548-0.172-3.972-1.252-0.015-0.101-0.024-0.217-0.024-0.336 0-0.244 0.036-0.479 0.104-0.701l-0.004 0.017 0.904 0.424 1.524 0.668c0.311 0.093 0.674 0.16 1.047 0.187l0.017 0.001c0.636-0.080 5.648-1.2 6.192-1.324 1.78-0.476 4.056-1.096 4.056-1.096l1.248 0.4zM18.104 22c-0.368-0.112-0.672 0.184-0.728 0.58-0.042 0.212-0.079 0.478-0.102 0.747l-0.002 0.029c0 0.336 0.12 1.444 0.312 1.548 0.516 0.24 2.692 1.12 3.644 1.44 0.236 0.080 2.312-0.268 2.552-0.316 0.8-0.164 1.516-0.304 2.22-0.496 0.768-0.116 1.536-0.284 2.304-0.4v-0.1z"></path>
<path fill="#3f9" style="fill: var(--color5, #3f9)" d="M16.872 30.296c0 1.476-0.152 1.704-1.132 1.704h-14.54c-0.872 0-1.136-0.188-1.164-1.080-0.036-1.644-0.036-3.296-0.036-4.944q0-3.2 0.052-6.4c0-1.2 0.328-2.28 1.328-3.012 0.876-0.644 1.896-0.688 2.92-0.676 0.1 0 0.208 0.112 0.296 0.184 2.132 1.772 6 1.776 8.104 0.024 0.152-0.122 0.344-0.199 0.554-0.208l0.002-0c1.372-0.032 2.624 0.256 3.472 1.52 0.063 0.075 0.111 0.165 0.139 0.263l0.001 0.005z"></path>
</symbol>
<symbol id="oil" viewBox="0 0 53 32">
<path fill="#3fa9f5" style="fill: var(--color7, #3fa9f5)" d="M36 9.2c-0.228 0.348-0.448 0.704-0.692 1.052q-0.888 1.264-1.796 2.52c-0.125 0.177-0.328 0.29-0.557 0.29-0.096 0-0.188-0.020-0.271-0.056l0.004 0.002-2.108-0.908c-0.243-0.092-0.413-0.322-0.413-0.593 0-0.045 0.005-0.089 0.014-0.131l-0.001 0.004c0.327-3.178 0.937-6.079 1.817-8.859l-0.085 0.311c0.256-0.8 0.552-1.556 0.844-2.324 0.176-0.476 0.556-0.584 1.020-0.308 1.34 0.837 2.887 1.527 4.529 1.989l0.127 0.031c0.504 0.132 0.728 0.4 0.688 0.772-0.010 0.089-0.033 0.17-0.066 0.245l0.002-0.005-1.176 2.66c0 0.048-0.044 0.092-0.072 0.152l1.168 0.508 11.852 5.108c0.27 0.12 0.455 0.387 0.455 0.696 0 0.102-0.020 0.2-0.057 0.289l0.002-0.005-0.8 1.96c-0.102 0.274-0.361 0.467-0.666 0.467-0.083 0-0.162-0.014-0.235-0.040l0.005 0.002-0.080-0.028v5.048h1.296c0 0 0.001 0 0.001 0 0.221 0 0.4 0.179 0.4 0.4 0 0.010-0 0.020-0.001 0.029l0-0.001v6.52h0.18c0.356 0 0.712 0 1.068 0 0.341 0.013 0.612 0.293 0.612 0.636 0 0.003-0 0.006-0 0.009v-0c0 0.94 0 1.884 0 2.824 0.001 0.012 0.001 0.027 0.001 0.041 0 0.345-0.279 0.624-0.624 0.624-0.013 0-0.026-0-0.039-0.001l0.002 0h-23.232c-0.371-0.009-0.668-0.312-0.668-0.684 0-0.004 0-0.009 0-0.013v0.001c0-0.92 0-1.844 0-2.764-0.002-0.016-0.002-0.035-0.002-0.054 0-0.342 0.278-0.62 0.62-0.62 0.016 0 0.032 0.001 0.048 0.002l-0.002-0h7.012c0.16 0 0.224-0.032 0.244-0.212 0.148-1.14 0.312-2.28 0.472-3.42s0.316-2.276 0.472-3.416c0.176-1.276 0.356-2.552 0.532-3.828q0.232-1.712 0.472-3.42c0.104-0.76 0.212-1.524 0.312-2.288 0-0.004 0.001-0.008 0.001-0.013 0-0.055-0.031-0.103-0.076-0.127l-0.001-0-2.512-1.072s-0.008 0-0.040 0zM43.088 12.244c0 0.080 0 0.132 0 0.184q0.216 1.6 0.44 3.2l0.504 3.652c0.168 1.2 0.336 2.4 0.5 3.6l0.552 4c0 0.096 0.052 0.12 0.14 0.12h1.276v-6.544c0-0 0-0 0-0 0-0.214 0.168-0.389 0.379-0.399l0.001-0h1.328c0.005-0.029 0.008-0.062 0.008-0.096s-0.003-0.067-0.008-0.1l0 0.004c-0.173-0.771-0.272-1.656-0.272-2.565 0-0.86 0.089-1.7 0.258-2.51l-0.014 0.079c0.072-0.32 0.060-0.4-0.080-0.452l-3.424-1.476zM38.552 20.668l-0.876 6.328 4.52-3.396zM43.148 22.596l0.032-0.024c-0.212-1.54-0.428-3.084-0.644-4.648l-2.86 1.896c1.176 0.936 2.324 1.856 3.472 2.776zM39.948 26.996h3.844c-0.12-0.876-0.24-1.736-0.364-2.628zM41.528 16.952c-0.728-0.584-1.528-1.152-2.288-1.732-0.164 1.2-0.312 2.332-0.476 3.52 0.916-0.608 1.856-1.192 2.764-1.792zM42.24 15.772l-0.44-3.152-1.692 1.492zM41.124 11.396l-1.2-0.52-0.252 1.812z"></path>
<path fill="#3f9" style="fill: var(--color5, #3f9)" d="M12.28 31.116c-1.097-1.241-1.958-2.721-2.495-4.348l-0.025-0.088c-0.382-1.215-0.603-2.611-0.603-4.060 0-0.401 0.017-0.799 0.050-1.192l-0.004 0.051c0.156-1.855 0.612-3.566 1.32-5.139l-0.040 0.099c0.706-1.635 1.649-3.034 2.804-4.228l-0.004 0.004c-0.546 1.237-1.107 2.789-1.575 4.38l-0.073 0.291c-0.412 1.364-0.723 2.967-0.873 4.616l-0.007 0.096c-0.042 0.484-0.067 1.046-0.067 1.615 0 1.112 0.093 2.202 0.271 3.264l-0.016-0.115c0.358 1.831 0.819 3.424 1.404 4.956l-0.068-0.204z"></path>
<path fill="#3f9" style="fill: var(--color5, #3f9)" d="M9.7 18.64c-4.148-0.62-6.5-5.2-5.828-6.436 1.2 1.292 2.856 3.868 5.88 6.124 0.168 0.38-0.052 0.312-0.052 0.312z"></path>
<path fill="#3f9" style="fill: var(--color5, #3f9)" d="M9.292 20.648c-1.647-0.124-3.175-0.439-4.625-0.927l0.133 0.039c-1.079-0.412-1.993-1.044-2.723-1.846l-0.005-0.006c-0.193-0.211-0.372-0.442-0.531-0.687l-0.013-0.021c-0.148-0.252-0.272-0.516-0.4-0.776-0.19-0.445-0.366-0.978-0.498-1.529l-0.014-0.071c-0.271-1.24-0.427-2.664-0.427-4.125 0-0.795 0.046-1.578 0.135-2.349l-0.009 0.094 0.044-0.536 0.44 0.044c0.917 0.106 1.754 0.34 2.531 0.686l-0.055-0.022c0.863 0.364 1.591 0.744 2.284 1.175l-0.068-0.039c0.769 0.471 1.431 0.949 2.055 1.47l-0.027-0.022c0.684 0.519 1.279 1.099 1.797 1.744l0.015 0.020c0.592 0.832 0.972 2.4 1.2 3.408l-0.228-0.52c-0.296-0.968-0.476-2-1.056-2.856-0.499-0.67-1.079-1.243-1.733-1.72l-0.023-0.016c-0.61-0.451-1.302-0.86-2.036-1.194l-0.072-0.030c-0.642-0.306-1.398-0.58-2.184-0.781l-0.088-0.019c-0.768-0.184-0.656-0.312-1.384-0.264-0.103 0.555-0.162 1.193-0.162 1.845 0 0.242 0.008 0.482 0.024 0.719l-0.002-0.032c0.134 1.119 0.318 2.103 0.56 3.063l-0.036-0.167c0.204 0.943 0.582 1.773 1.102 2.496l-0.014-0.020c0.581 0.681 1.277 1.243 2.062 1.661l0.038 0.019c0.359 0.199 0.783 0.389 1.223 0.545l0.061 0.019c0.388 0.15 0.846 0.276 1.32 0.358l0.044 0.006c0.315 0.059 0.677 0.092 1.047 0.092 0.172 0 0.343-0.007 0.511-0.021l-0.022 0.002"></path>
<path fill="#3f9" style="fill: var(--color5, #3f9)" d="M14.656 17.272c1.256-0.732 2.287-1.721 3.047-2.901l0.021-0.035c0.364-0.553 0.707-1.189 0.993-1.855l0.031-0.081c0.251-0.548 0.509-1.233 0.726-1.935l0.034-0.129c0.176-0.563 0.353-1.29 0.492-2.030l0.020-0.13c0.129-0.609 0.235-1.352 0.296-2.107l0.004-0.065 0.316 0.692s0 0-0.028 0c-0.037-0.014-0.081-0.026-0.127-0.035l-0.005-0.001c-0.104-0.024-0.23-0.044-0.358-0.055l-0.010-0.001c-0.187-0.017-0.405-0.027-0.625-0.027-0.076 0-0.151 0.001-0.226 0.003l0.011-0c-0.644 0.019-1.255 0.070-1.856 0.154l0.088-0.010c-1.325 0.204-2.504 0.51-3.633 0.918l0.133-0.042c-1.22 0.411-2.28 0.954-3.24 1.627l0.040-0.027c-0.496 0.342-0.928 0.723-1.31 1.149l-0.006 0.007-0.276 0.34-0.252 0.356c-0.174 0.269-0.343 0.58-0.487 0.904l-0.017 0.044s-0.892-0.752-0.704-1.084c0.088-0.152 0.492-0.768 0.588-0.916l0.3-0.432c0.425-0.549 0.896-1.029 1.416-1.451l0.016-0.013c0.993-0.779 2.135-1.433 3.366-1.909l0.091-0.031c1.082-0.428 2.349-0.772 3.663-0.975l0.101-0.013c0.577-0.099 1.252-0.163 1.939-0.18l0.017-0c0.027-0 0.058-0 0.090-0 0.329 0 0.654 0.018 0.974 0.052l-0.040-0.003c0.213 0.024 0.402 0.057 0.587 0.102l-0.031-0.006c0.124 0.028 0.229 0.061 0.331 0.101l-0.015-0.005c0.153 0.057 0.285 0.128 0.405 0.215l-0.005-0.003 0.352 0.24-0.040 0.452c-0.082 0.911-0.211 1.73-0.388 2.531l0.024-0.131c-0.209 0.913-0.433 1.669-0.698 2.405l0.046-0.145c-0.54 1.62-1.289 3.026-2.231 4.278l0.027-0.038c-0.945 1.261-2.189 2.249-3.63 2.866l-0.058 0.022c-0.299 0.126-0.665 0.249-1.042 0.347l-0.058 0.013c-0.376 0.072-2.276 0.624-2.656 0.64-0.752 0.092 2.224-0.928 3.468-1.656z"></path>
</symbol>
<symbol id="ocean" viewBox="0 0 67 32">
<path fill="#3fa9f5" style="fill: var(--color7, #3fa9f5)" d="M46.304 30.872c-0.001 0-0.001 0-0.002 0-0.389 0-0.753-0.109-1.063-0.297l0.009 0.005-4.196-2.524c-0.588-0.355-0.975-0.991-0.975-1.718 0-0.313 0.072-0.61 0.201-0.874l-0.005 0.012 0.928-3.256-0.68-1.32-3.636-0.956c-0.954-0.261-1.644-1.12-1.644-2.141 0-0.001 0-0.002 0-0.003v0-4.884c0.1-1.12 0.94-1.944 2.368-2.328h0.052l2.772-0.596 0.768-1.312-0.98-3.72c-0.043-0.159-0.068-0.341-0.068-0.53 0-0.751 0.396-1.409 0.991-1.777l0.009-0.005 3.808-2.3c0.356-0.218 0.787-0.347 1.248-0.347 0.687 0 1.307 0.286 1.747 0.746l0.001 0.001 3.268 3.376-1.488 1.476-3.268-3.376c-0.066-0.068-0.158-0.11-0.26-0.11-0.068 0-0.131 0.018-0.185 0.051l0.002-0.001-3.824 2.3 1.2 4.524-1.624 2.856-3.664 0.8c-0.472 0.132-0.756 0.328-0.8 0.46v4.72c0 0 0 0 0 0 0 0.057 0.039 0.105 0.091 0.12l0.001 0 4.532 1.2 1.508 2.856-1.256 4.296 4.12 2.48 3.292-3.38 3.144 0.036 2.964 2.92c0.127 0.188 0.339 0.31 0.579 0.31 0.159 0 0.306-0.053 0.423-0.143l-0.002 0.001 0.048-0.032 3.536-2.152-1.256-4.4 1.568-2.912 4.428-1.056c0.125-0.026 0.219-0.133 0.224-0.263l0-0.001v-4.42c-0-0.104-0.068-0.193-0.162-0.224l-0.002-0-4.516-1.316 0.576-2 4.516 1.316c0.971 0.298 1.665 1.185 1.668 2.236v4.416c-0.011 1.114-0.79 2.044-1.832 2.285l-0.016 0.003-3.488 0.852-0.72 1.336 1.080 3.78c0.276 0.84-0.264 1.724-0.916 2.12l-3.572 2.176c-0.439 0.309-0.985 0.493-1.575 0.493-0.884 0-1.672-0.416-2.177-1.063l-0.005-0.006-2.212-2.172h-1.432l-2.664 2.74c-0.373 0.381-0.893 0.616-1.468 0.616-0.013 0-0.025-0-0.038-0l0.002 0zM46.212 0.872c-0.296 0.002-0.572 0.087-0.807 0.232l0.007-0.004-3.836 2.3c-0.348 0.214-0.577 0.593-0.577 1.026 0 0.11 0.015 0.217 0.043 0.319l-0.002-0.008 1.072 4.064-1.104 1.948-3.152 0.68c-0.616 0.164-1.652 0.584-1.74 1.56v4.8c0 0.62 0.417 1.142 0.986 1.302l0.010 0.002 4 1.052 1.016 1.98-1.080 3.696c-0.076 0.148-0.12 0.323-0.12 0.508 0 0.411 0.219 0.771 0.547 0.969l0.005 0.003 4.192 2.524c0.176 0.101 0.387 0.161 0.612 0.161 0.342 0 0.651-0.138 0.876-0.361l-0 0 2.92-3.008 2.148 0.024 2.52 2.476c0.347 0.463 0.895 0.76 1.512 0.76 0.416 0 0.801-0.135 1.113-0.364l-0.005 0.004 3.6-2.188c0.331-0.188 0.551-0.538 0.551-0.939 0-0.064-0.006-0.126-0.016-0.187l0.001 0.006-1.2-4.136 1.072-2 3.888-0.932c0.672-0.153 1.166-0.745 1.168-1.452v-4.404c-0.001-0.656-0.434-1.21-1.030-1.393l-0.010-0.003-3.652-1.088-0.096 0.336 3.684 1.076c0.464 0.139 0.797 0.56 0.8 1.060v4.44c-0.004 0.542-0.384 0.995-0.892 1.111l-0.008 0.001-4.044 0.968-1.2 2.252 1.256 4.4-0.036 0.124c-0.076 0.205-0.216 0.371-0.396 0.478l-0.004 0.002-3.6 2.184c-0.256 0.19-0.578 0.304-0.926 0.304-0.509 0-0.961-0.243-1.247-0.62l-0.003-0.004-2.628-2.612-2.432-0.028-3.024 3.112c-0.158 0.164-0.38 0.267-0.626 0.267-0.161 0-0.313-0.044-0.442-0.121l0.004 0.002-4.188-2.524c-0.229-0.143-0.38-0.394-0.38-0.681 0-0.139 0.035-0.27 0.098-0.384l-0.002 0.004 1.112-3.84-1.152-2.24-4.168-1.108c-0.427-0.118-0.736-0.504-0.736-0.961 0-0.001 0-0.002 0-0.003v0-4.8c0.072-0.552 0.572-0.968 1.452-1.2l3.312-0.716 1.252-2.208-1.112-4.2c-0.017-0.063-0.026-0.135-0.026-0.21 0-0.314 0.17-0.588 0.422-0.736l0.004-0.002 3.832-2.324c0.18-0.114 0.399-0.181 0.634-0.181 0.344 0 0.654 0.145 0.873 0.377l0.001 0.001 2.664 2.752 0.248-0.244-2.664-2.752c-0.284-0.296-0.682-0.48-1.124-0.48-0.007 0-0.014 0-0.021 0h0.001z"></path>
<path fill="#3fa9f5" style="fill: var(--color7, #3fa9f5)" d="M51.292 20.988c-3.039-0.042-5.486-2.515-5.486-5.559 0-2.133 1.201-3.985 2.964-4.918l0.030-0.015 0.536 1.104c-1.421 0.727-2.376 2.181-2.376 3.858 0 2.386 1.934 4.32 4.32 4.32s4.32-1.934 4.32-4.32c0-0.008-0-0.015-0-0.023v0.001h1.2c0 0.005 0 0.010 0 0.016 0 3.048-2.463 5.52-5.507 5.536h-0.002z"></path>
<path fill="#3fa9f5" style="fill: var(--color7, #3fa9f5)" d="M52.492 14c6.32 0.964 8.192-3.156 8.172-7.6-0.013-2.232-0.276-4.395-0.763-6.472l0.039 0.196c-8.072 2.464-13.516 7.804-8.080 13.6 0 0 0.572-1.044 1.332-2.4 0.056-0.096-0.896-3.856-0.8-3.9 0.756-0.312 1.088 3.368 1.156 3.248l0.204-0.352c0.32-0.56 0.652-1.14 0.976-1.688 0.076-0.132-0.556-2.552-0.4-2.568 0.8-0.088 0.776 1.956 0.84 1.848 0.8-1.324 1.388-2.4 1.54-2.376 0.005-0 0.011-0 0.017-0 0.128 0 0.237 0.077 0.286 0.186l0.001 0.002c0.040 0.12-1.2 2.096-1.18 2.208s1.624-0.276 1.668-0.192c0.348 0.736-2.224 0.8-2.188 1.028 0 0.092-1.124 1.868-1.116 1.948 0.036 0.4 3.916-1.488 3.224-0.156l-3.532 0.968z"></path>
<path fill="#3f9" style="fill: var(--color5, #3f9)" d="M30.8 17.956c-0.116 6.064-5.2 14.044-15.428 14.044-8.372 0-15.328-6.6-15.316-14.428 0 0 3.416 1.924 4.5 1.368 1.4-0.72 3.008-1.344 3.008-1.344 3.72 3.716 7.34-0.604 7.42-0.4 1.88 4.476 5.86 0.84 5.86 0.84 5.956 1.884 9.956-0.080 9.956-0.080z"></path>
<path fill="#fff" style="fill: var(--color8, #fff)" d="M7.464 20.572l1.276 0.568c0.087 0.040 0.188 0.064 0.295 0.064 0.317 0 0.585-0.206 0.68-0.49l0.001-0.005 1.028-3.036c0.011-0.047 0.018-0.1 0.018-0.155 0-0.339-0.249-0.619-0.574-0.668l-0.004-0 0.456-1.6-0.8-0.316-0.688 1.524-0.112 0.096c-0.348-0.052-0.632 0.28-0.764 0.608l-1.1 2.688c-0.027 0.064-0.043 0.138-0.043 0.215 0 0.226 0.135 0.42 0.328 0.507l0.003 0.001z"></path>
<path fill="#fff" style="fill: var(--color8, #fff)" d="M20.372 23.772l0.304 0.46c0.156 0.234 0.419 0.386 0.718 0.386 0.196 0 0.376-0.065 0.521-0.175l-0.002 0.002 1.716-1.292c0.214-0.162 0.35-0.416 0.35-0.703 0-0.186-0.058-0.358-0.156-0.5l0.002 0.003-0.36-0.532c-0.264-0.4-0.348 0.432-0.744 0.696l-1.404 0.824c-0.4 0.26-1.208 0.432-0.944 0.832z"></path>
<path fill="#fff" style="fill: var(--color8, #fff)" d="M18.704 14.4c0.272-0.080-0.8-0.8-0.8-0.8s-3.772 3.008-3.736 4.5 1.892 4.7 3.144 5.388c0.336 0.188 1.72-0.148 1.72-0.148s0.728-2.436 1.444-2.94c0.46-0.336 2.168-0.4 2.168-0.4s1.264-0.7 1.496-1.104c0.512-0.904 0.4-4.144 0.4-4.144l-0.832-0.088-0.508 2.068c-1.224-0.448-0.74-0.284-2.572-0.4-0.848 0.364-2.4 1.564-2.952 0.664-0.004-0.016-0.512-2.16 1.028-2.596z"></path>
<path fill="#fff" style="fill: var(--color8, #fff)" d="M13.1 27.064l0.744 0.452c0.185 0.115 0.409 0.184 0.65 0.184 0.48 0 0.897-0.273 1.103-0.673l0.003-0.007 1.36-2.62c0.192-0.379 0.304-0.827 0.304-1.301 0-0.077-0.003-0.154-0.009-0.23l0.001 0.010 0.048-0.948 0.524-1.308-1.2-0.588-1.028 1.324-0.556 0.288c-0.243 0.143-0.454 0.298-0.648 0.471l0.004-0.003-1.784 2.928c-0.135 0.218-0.216 0.483-0.216 0.767 0 0.527 0.277 0.989 0.693 1.249l0.006 0.004z"></path>
<path fill="#000" style="fill: var(--color9, #000)" opacity="0.53" d="M8.644 18.612c-0.4-0.124-0.58-0.136-0.944-0.22l0.3-0.732c0.436 0.1 0.828 0.28 1.276 0.4 0.361 0.117 0.798 0.221 1.247 0.29l0.049 0.006-0.332 0.712s-0.664-0.172-1.596-0.456z"></path>
<path fill="#000" style="fill: var(--color9, #000)" d="M3.764 19.2c-0.002 0-0.004 0-0.006 0-0.213 0-0.421-0.025-0.62-0.072l0.018 0.004c-0.234-0.062-0.426-0.127-0.613-0.201l0.037 0.013c-0.52-0.184-1.844-0.692-2.504-0.608v-0.8c1.224-0.156 2.096 0.304 3.384 0.764l0.352 0.12c0.372-0.101 0.695-0.228 1-0.385l-0.028 0.013c0.62-0.34 1.353-0.556 2.132-0.596l0.012-0c0.395 0.013 0.771 0.075 1.128 0.18l-0.032-0.008-0.324 0.776c-0.328-0.056-0.752-0.14-0.8-0.14v0c-0.429 0.081-0.811 0.219-1.16 0.41l0.020-0.010c-0.579 0.307-1.261 0.502-1.984 0.54l-0.012 0z"></path>
<path fill="#000" style="fill: var(--color9, #000)" d="M25.952 19.348c-0.004 0-0.008 0-0.012 0-0.214 0-0.423-0.025-0.622-0.072l0.018 0.004c-0.247-0.065-0.452-0.135-0.65-0.217l0.034 0.013c-0.136-0.048-0.332-0.156-0.496-0.216l0.22-0.776c0.176 0.060 1.008 0.32 1.144 0.372l0.4 0.132c0.487-0.11 0.916-0.266 1.317-0.467l-0.033 0.015c0.538-0.288 1.171-0.474 1.843-0.515l0.013-0.001c0.656 0.095 1.219 0.212 1.77 0.36l-0.106-0.024-0.036 0.772c-0.192-0.044-1.6-0.236-1.664-0.244-0.323 0.060-0.606 0.14-0.878 0.243l0.034-0.011c-0.667 0.348-1.449 0.576-2.278 0.631l-0.018 0.001z"></path>
<path fill="#000" style="fill: var(--color9, #000)" opacity="0.53" d="M17.944 19.132c-0.71-0.025-1.375-0.195-1.974-0.481l0.030 0.013c-0.358-0.163-0.776-0.301-1.212-0.393l-0.040-0.007h-0.040c-0.016-0.001-0.036-0.001-0.055-0.001-0.183 0-0.358 0.033-0.519 0.092l0.010-0.003c-0.018-0.065-0.028-0.139-0.028-0.216 0-0.239 0.098-0.456 0.256-0.612l0-0c0.036 0 0.668 0 0.716 0 0.752 0 0.948 0.292 1.636 0.576 0.311 0.12 0.711 0.247 1.12 0.351l0.080 0.017c0.014 0.002 0.030 0.003 0.046 0.003s0.032-0.001 0.048-0.003l-0.002 0c0.28-0.052 0.9-0.252 1.324-0.4 0.6-0.202 1.29-0.318 2.008-0.318 0.149 0 0.297 0.005 0.444 0.015l-0.020-0.001c0.069-0.001 0.151-0.002 0.233-0.002 0.713 0 1.412 0.062 2.091 0.181l-0.072-0.010c0.056 0 0.428 0.136 0.4 0.176l-0.208 0.764c0 0.064-0.464-0.096-0.56-0.124-0.552-0.133-1.21-0.235-1.882-0.285l-0.042-0.003c-0.576 0.016-1.124 0.108-1.644 0.268l0.044-0.012c-0.623 0.237-1.344 0.395-2.096 0.439l-0.020 0.001z"></path>
<path fill="#000" style="fill: var(--color9, #000)" d="M10.76 19.132c-0.029 0.002-0.062 0.004-0.096 0.004-0.108 0-0.213-0.013-0.313-0.037l0.009 0.002 0.236-0.732c-0.028 0 1.512-0.328 2.072-0.496 0.252-0.076 1.564-0.328 1.564-0.328-0.046 0.24-0.072 0.517-0.072 0.8 0 0 0 0 0 0v-0l-0.716 0.216c-1.356 0.388-2.112 0.572-2.684 0.572z"></path>
<path fill="#fff" style="fill: var(--color8, #fff)" d="M16.868 12c-1.308 0-2.188-0.76-2.192-1.888v-3.168c0.027-1.037 0.874-1.868 1.915-1.868 0.003 0 0.006 0 0.009 0h-0c0.085-0.010 0.183-0.016 0.283-0.016 0.588 0 1.128 0.204 1.554 0.544l-0.005-0.004c0.392 0.397 0.634 0.943 0.634 1.545 0 0.057-0.002 0.114-0.006 0.17l0-0.007v0.648c0 0.72 0 1.44 0 2.16-0.004 1.084-0.904 1.884-2.192 1.884zM16.8 5.576h-0.176c-0.008-0-0.018-0-0.028-0-0.761 0-1.38 0.609-1.396 1.367l-0 0.001c0 0.38 0 0.764 0 1.144v2.020c0 0.856 0.636 1.384 1.652 1.384s1.652-0.56 1.652-1.392q0-1.080 0-2.16v-0.648c0.005-0.050 0.008-0.108 0.008-0.167 0-0.455-0.178-0.868-0.469-1.174l0.001 0.001c-0.304-0.237-0.692-0.381-1.113-0.381-0.046 0-0.092 0.002-0.137 0.005l0.006-0zM16.884 11.22h-0.084c-0.616 0-1.252-0.144-1.264-1.048 0-1.068 0-2.172 0-3.276 0.024-0.92 0.688-1.048 1.268-1.056 0.8 0 1.332 0.16 1.4 1.028 0 0.216 0 0.436 0 0.656v0.228c0 0.188 0 0.38 0 0.572v0.496c0 0.084 0 0.164 0 0.248 0 0.376 0 0.764 0 1.148-0.056 0.824-0.544 1.004-1.324 1.004zM16.884 6.348h-0.084c-0.612 0-0.724 0.152-0.732 0.56-0.024 1.1-0.028 2.196 0 3.256 0 0.4 0.072 0.54 0.736 0.552 0.8 0 0.84-0.124 0.864-0.528s0-0.748 0-1.116c0-0.168 0-0.336 0-0.504v-0.252c0-0.188 0-0.376 0-0.56v-0.236c0-0.204 0-0.4 0-0.616-0.036-0.4-0.116-0.556-0.8-0.556z"></path>
<path fill="#fff" style="fill: var(--color8, #fff)" d="M14.272 12.080h-0.284l-0.724-0.028c-0.576 0-1.172-0.032-1.756-0.104-0.647-0.103-1.138-0.653-1.148-1.319v-0.001c0-1.6 0-2.912 0-4.14 0.037-0.772 0.672-1.384 1.45-1.384 0.006 0 0.012 0 0.019 0h-0.001c0.492 0 0.98 0 1.492 0h0.964v1.256h-0.828c-0.424 0-0.86 0-1.292 0-0.031-0.005-0.066-0.009-0.103-0.009-0.109 0-0.212 0.028-0.301 0.078l0.003-0.002c-0.053 0.078-0.084 0.174-0.084 0.278 0 0.023 0.002 0.046 0.005 0.069l-0-0.003c0.024 1.252 0 2.512 0 3.6-0.002 0.019-0.004 0.041-0.004 0.063 0 0.106 0.031 0.205 0.085 0.287l-0.001-0.002c0.070 0.038 0.153 0.061 0.242 0.061 0.033 0 0.066-0.003 0.097-0.009l-0.003 0.001c0.436-0.024 0.86 0 1.308 0h0.856zM12.672 5.6h-0.828c-0.001 0-0.001 0-0.002 0-0.502 0-0.914 0.391-0.946 0.885l-0 0.003c0 1.22 0 2.532 0 4.128 0.009 0.403 0.293 0.736 0.67 0.823l0.006 0.001c0.56 0.068 1.14 0.084 1.704 0.1h0.452v-0.324h-0.324c-0.44 0-0.852 0-1.268 0-0.044 0.007-0.094 0.011-0.146 0.011-0.224 0-0.429-0.076-0.593-0.205l0.002 0.002c-0.156-0.162-0.253-0.383-0.253-0.627 0-0.033 0.002-0.065 0.005-0.097l-0 0.004c0-1.064 0.020-2.32 0-3.568-0.003-0.029-0.005-0.062-0.005-0.096 0-0.24 0.097-0.458 0.253-0.616l-0 0c0.178-0.139 0.405-0.222 0.651-0.222 0.053 0 0.104 0.004 0.155 0.011l-0.006-0.001c0.4 0.020 0.848 0 1.264 0h0.296v-0.212h-1.088z"></path>
<path fill="#fff" style="fill: var(--color8, #fff)" d="M21.148 12c-0.368 0-0.744 0-1.116-0.028s-0.556-0.432-0.588-0.644c-0.009-0.070-0.014-0.152-0.014-0.234 0-0.846 0.548-1.564 1.309-1.818l0.014-0.004c0.128-0.048 0.26-0.088 0.4-0.128v-0.344h-1.688v-1.276h0.768c0.424 0 0.868 0 1.304 0 0.266 0.037 0.5 0.155 0.68 0.328l-0-0c0.276 0.248 0.352 1.048 0.352 1.432 0 0.576-0.124 0.756-0.22 0.84-0.235 0.172-0.53 0.276-0.849 0.276-0.002 0-0.005 0-0.007-0h0c-0.348 0.024-0.528 0.108-0.608 0.32h1.648v1.28h-1.384zM20.108 11.472c0.528 0.028 1.068 0.024 1.6 0.020h0.292v-0.24h-1.72v-0.268c0.068-0.884 0.696-1.028 1.164-1.060 0.012 0.001 0.026 0.001 0.041 0.001 0.178 0 0.343-0.051 0.483-0.139l-0.004 0.002c0.032-0.16 0.050-0.345 0.050-0.533 0-0.365-0.068-0.714-0.193-1.034l0.007 0.020c-0.089-0.088-0.201-0.153-0.327-0.183l-0.005-0.001c-0.42-0.024-0.836-0.020-1.272 0h-0.224v0.268h1.68v1.2l-0.36 0.112c-0.124 0.040-0.244 0.076-0.364 0.12-0.565 0.19-0.964 0.715-0.964 1.333 0 0.053 0.003 0.105 0.009 0.157l-0.001-0.006c0.019 0.084 0.057 0.156 0.109 0.217l-0.001-0.001z"></path>
</symbol>
<symbol id="factory" viewBox="0 0 77 32">
<path fill="#3fa9f5" style="fill: var(--color7, #3fa9f5)" d="M73.84 32h-35.012v-24.902h10.869v17.207l6.587-0.017v-3.414l17.618-0.054-0.062 11.18z"></path>
<path fill="#3fa9f5" style="fill: var(--color7, #3fa9f5)" d="M72.765 20.368h-15.369v-3.012h1.149l0.631-7.873h3.456l0.589 7.84 3.539-0.012 0.676-7.828h3.497l0.672 7.828h1.162v3.057z"></path>
<path fill="#3fa9f5" style="fill: var(--color7, #3fa9f5)" d="M67.812 7.098h2.908v1.755h-2.908v-1.755z"></path>
<path fill="#3fa9f5" style="fill: var(--color7, #3fa9f5)" d="M59.429 7.098h2.908v1.755h-2.908v-1.755z"></path>
<path fill="#1a1a1a" style="fill: var(--color10, #1a1a1a)" opacity="0.78" d="M43.483 10.537h-2.908l0.021-2.767h2.908l-0.021 2.767z"></path>
<path fill="#1a1a1a" style="fill: var(--color10, #1a1a1a)" opacity="0.78" d="M48.245 10.537h-2.908l0.021-2.767h2.908l-0.021 2.767z"></path>
<path fill="#1a1a1a" style="fill: var(--color10, #1a1a1a)" opacity="0.78" d="M43.483 15.17h-2.908l0.021-2.767h2.908l-0.021 2.767z"></path>
<path fill="#1a1a1a" style="fill: var(--color10, #1a1a1a)" opacity="0.78" d="M43.483 20.119h-2.908l0.021-2.767h2.908l-0.021 2.767z"></path>
<path fill="#1a1a1a" style="fill: var(--color10, #1a1a1a)" opacity="0.78" d="M48.245 20.119h-2.908l0.021-2.767h2.908l-0.021 2.767z"></path>
<path fill="#1a1a1a" style="fill: var(--color10, #1a1a1a)" opacity="0.78" d="M43.483 24.753h-2.908l0.021-2.767h2.908l-0.021 2.767z"></path>
<path fill="#1a1a1a" style="fill: var(--color10, #1a1a1a)" opacity="0.78" d="M48.245 24.753h-2.908l0.021-2.767h2.908l-0.021 2.767z"></path>
<path fill="#1a1a1a" style="fill: var(--color10, #1a1a1a)" opacity="0.78" d="M43.483 29.656h-2.908l0.021-2.767h2.908l-0.021 2.767z"></path>
<path fill="#1a1a1a" style="fill: var(--color10, #1a1a1a)" opacity="0.78" d="M48.245 29.656h-2.908l0.021-2.767h2.908l-0.021 2.767z"></path>
<path fill="#1a1a1a" style="fill: var(--color10, #1a1a1a)" opacity="0.78" d="M58.188 25.097h2.572v1.867h-2.572v-1.867z"></path>
<path fill="#1a1a1a" style="fill: var(--color10, #1a1a1a)" opacity="0.78" d="M63.705 25.097h2.572v1.867h-2.572v-1.867z"></path>
<path fill="#1a1a1a" style="fill: var(--color10, #1a1a1a)" opacity="0.78" d="M69.268 25.097h2.572v1.867h-2.572v-1.867z"></path>
<path fill="#1a1a1a" style="fill: var(--color10, #1a1a1a)" opacity="0.78" d="M48.245 15.17h-2.908l0.021-2.767h2.908l-0.021 2.767z"></path>
<path fill="#fff" style="fill: var(--color8, #fff)" d="M60.806 6.422s0.473-2.73 4.712-2.19c1.514 0.191 2.75-1.153 2.837-2.547 0.091-1.539-2.398-2.219-2.684-1.199-0.838 2.995-5.107 0.050-4.866 5.936z"></path>
<path fill="#fff" style="fill: var(--color8, #fff)" d="M69.277 6.422s0.473-2.73 4.712-2.19c1.514 0.191 2.754-1.153 2.837-2.547 0.095-1.539-2.398-2.219-2.684-1.199-0.838 2.995-5.090 0.050-4.866 5.936z"></path>
<path fill="#fff" style="fill: var(--color8, #fff)" d="M13.756 31.942h-3.837s-2.721-4.891-7.637-6.529c-0.282-0.108-2.215-4.414-2.261-4.82-0.087-0.73 0.116-7.164 0.415-7.185 0.489-0.037 1.381 0.502 1.39 1.133 0.021 1.323 0.153 4.588 0.108 4.63s-0.651 0.299-0.531 0.801c0.083 0.324 4.111 5.911 4.335 5.517 0.382-0.668-4.443-5.185-4.211-5.903 0.025-0.083 0.535-0.747 0.904-0.415 4.704 4.497 7.338 4.783 7.658 4.808 4.016 0.324 3.667 7.965 3.667 7.965z"></path>
<path fill="#fff" style="fill: var(--color8, #fff)" d="M2.518 18.995c-0.119-0.054-0.259-0.097-0.404-0.123l-0.011-0.002-0.029-3.269c0.388 0.052 0.703 0.316 0.827 0.669l0.002 0.007v3.045z"></path>
<path fill="#fff" style="fill: var(--color8, #fff)" d="M3.733 20.057c-0.282-0.154-0.511-0.374-0.672-0.639l-0.004-0.008 0.033-2.539c0-0.166 0.568 0.154 0.643 0.618v2.568z"></path>
<path fill="#fff" style="fill: var(--color8, #fff)" d="M4.439 20.646c-0.216-0.114-0.398-0.26-0.55-0.433l-0.002-0.002v-1.929c0-0.116 0.552 0.183 0.552 0.295v2.074z"></path>
<path fill="#fff" style="fill: var(--color8, #fff)" d="M15.876 31.942h3.837s2.725-4.891 7.641-6.529c0.282-0.095 2.211-4.414 2.261-4.82 0.083-0.73-0.116-7.164-0.415-7.185-0.494-0.037-1.381 0.502-1.394 1.133-0.012 1.323-0.012 4.418-0.012 4.7 0.146 0.186 0.243 0.415 0.269 0.666l0 0.006c0.025 0.332-3.92 5.961-4.148 5.579-0.415-0.622 4.476-5.206 4.148-5.87-0.029-0.058-0.27-0.353-0.394-0.502-0.020-0.021-0.049-0.035-0.081-0.035s-0.060 0.013-0.081 0.035l-0 0c-4.692 4.393-7.645 4.833-7.961 4.858-4.020 0.324-3.671 7.965-3.671 7.965z"></path>
<path fill="#fff" style="fill: var(--color8, #fff)" d="M27.188 19.082c0.12-0.113 0.256-0.211 0.405-0.29l0.010-0.005v-3.203c-0.388 0.051-0.703 0.315-0.828 0.669l-0.002 0.007 0.079 3.173z"></path>
<path fill="#fff" style="fill: var(--color8, #fff)" d="M25.935 20.19c0.26-0.199 0.489-0.398 0.708-0.608l-0.002 0.002-0.091-2.713c0-0.166-0.568 0.154-0.647 0.618l0.037 1.846c-0.008 0.162-0.004 0.855-0.004 0.855z"></path>
<path fill="#fff" style="fill: var(--color8, #fff)" d="M25.197 20.808c0.137-0.075 0.606-0.415 0.581-0.494l-0.033-2.033c0-0.116-0.548 0.183-0.548 0.295v2.232z"></path>
<path fill="#3f9" style="fill: var(--color5, #3f9)" d="M25.985 11.458c-0.713 6.119-13.54 9.035-14.249 8.732-0.585-0.257-10.976-12.955-4.775-17.771 6.928-5.393 9.856 3.63 9.919 3.082 0.017-0.162 10.271-4.045 9.106 5.957z"></path>
</symbol>
<symbol id="earth" viewBox="0 0 79 32">
<path fill="#3fa9f5" style="fill: var(--color7, #3fa9f5)" d="M78.254 18.903c-0.275 1.036-0.603 1.925-1.002 2.774l0.042-0.1c-1.371 2.423-3.415 3.867-6.226 4.069-0.946 0.064-1.902 0-2.907 0v-1.138c0.832 0 1.673 0 2.519 0 0.018 0 0.039 0 0.061 0 3.009 0 5.525-2.108 6.153-4.927l0.008-0.042c0.498-2.363 0.192-4.635-1.76-6.4-0.768-0.709-1.782-1.162-2.901-1.216l-0.011-0c-0.32 0-0.645-0.046-1.019-0.073-0.064-0.526-0.133-1.015-0.183-1.509-0.242-2.231-1.797-3.799-4.041-3.817-0.051 0.003-0.11 0.005-0.169 0.005-0.976 0-1.83-0.526-2.293-1.31l-0.007-0.012c-2.222-3.141-6.299-4.334-10.117-3.131-3.536 1.216-6.053 4.464-6.167 8.316l-0 0.013c0 0.251 0 0.498 0 0.846-2.496 0-4.571 0.768-6.043 2.839-1.056 1.486-1.253 3.168-1.074 4.914 0.173 1.289 0.729 2.425 1.549 3.314l-0.004-0.004c0.745 0.937 1.777 1.616 2.962 1.908l0.037 0.008c1.193 0.242 2.427 0.288 3.707 0.425v0.978c-5.595 0.882-9.92-3.456-9.449-8.402 0.306-3.59 3.027-6.462 6.517-6.998l0.043-0.005c0.457-0.078 0.603-0.238 0.672-0.709 0.677-4.645 3.89-8.146 8.443-8.878 4.027-0.64 7.442 0.677 9.975 3.986 0.253 0.391 0.683 0.65 1.173 0.663l0.002 0c3.031 0.238 4.887 1.961 5.486 5.029 0.063 0.22 0.221 0.394 0.425 0.478l0.005 0.002c3.2 0.654 4.841 2.743 5.486 5.801 0.025 0.077 0.056 0.143 0.094 0.205l-0.002-0.004z"></path>
<path fill="#3fa9f5" style="fill: var(--color7, #3fa9f5)" d="M47.95 26.117c-0.032 0-0.070 0.001-0.108 0.001-2.245 0-4.287-0.87-5.808-2.291l0.005 0.005c-1.556-1.488-2.523-3.58-2.523-5.898 0-4.062 2.969-7.43 6.856-8.052l0.047-0.006c0.279-0.046 0.315-0.073 0.361-0.393 0.709-4.869 4.146-8.475 8.754-9.211 4.183-0.663 7.771 0.763 10.331 4.114 0.182 0.306 0.504 0.514 0.875 0.535l0.003 0c3.163 0.247 5.184 2.080 5.842 5.298 0.030 0.082 0.084 0.15 0.154 0.196l0.001 0.001c3.127 0.64 5.029 2.633 5.769 6.080l0.105 0.197 0.014 2.336c-0.096 0.274-0.178 0.558-0.265 0.841-0.188 0.722-0.435 1.351-0.746 1.942l0.024-0.049c-1.463 2.624-3.657 4.055-6.523 4.261-0.663 0.046-1.312 0.032-1.998 0-0.311 0-0.622 0-0.937 0h-0.375v-1.888h2.885c0.028 0 0.060 0.001 0.093 0.001 2.824 0 5.185-1.984 5.765-4.634l0.007-0.039c0.544-2.578 0-4.571-1.641-6.030-0.709-0.665-1.652-1.088-2.693-1.133l-0.009-0-0.681-0.046-0.677-0.050-0.101-0.777c-0.046-0.357-0.087-0.699-0.128-1.042-0.224-2.098-1.669-3.465-3.657-3.483-0.049 0.003-0.107 0.004-0.165 0.004-1.103 0-2.070-0.588-2.602-1.468l-0.008-0.014c-2.071-2.953-5.97-4.155-9.687-2.985-3.387 1.167-5.797 4.279-5.906 7.969l-0 0.013c0 0.155 0 0.315 0 0.503v0.709h-0.457c-2.519 0-4.366 0.878-5.641 2.679-0.882 1.248-1.202 2.743-1.006 4.663 0.163 1.21 0.688 2.276 1.462 3.108l-0.003-0.003c0.684 0.868 1.632 1.5 2.722 1.775l0.035 0.007c0.699 0.137 1.555 0.249 2.424 0.311l0.072 0.004c0.389 0.032 0.782 0.064 1.179 0.11l0.334 0.037v1.632l-0.32 0.050c-0.437 0.072-0.94 0.114-1.453 0.114h-0.001zM57.55 0.855c-0.668 0.004-1.319 0.060-1.955 0.165l0.071-0.010c-4.361 0.69-7.479 3.973-8.123 8.562-0.009 0.546-0.436 0.99-0.975 1.024l-0.003 0c-3.586 0.557-6.298 3.623-6.298 7.322 0 2.102 0.876 3.999 2.282 5.347l0.003 0.003c1.405 1.306 3.295 2.107 5.371 2.107 0.377 0 0.748-0.026 1.112-0.078l-0.042 0.005v-0.311l-0.827-0.073c-0.968-0.066-1.852-0.181-2.718-0.347l0.14 0.022c-1.305-0.314-2.407-1.039-3.191-2.027l-0.009-0.012c-0.867-0.938-1.456-2.146-1.629-3.484l-0.003-0.032c-0.215-2.089 0.155-3.781 1.138-5.17 1.371-1.947 3.333-2.926 5.975-2.99 0-0.178 0-0.329 0-0.485 0.111-4.032 2.737-7.422 6.361-8.666l0.066-0.020c4.032-1.266 8.261 0.050 10.514 3.273 0.4 0.7 1.141 1.163 1.991 1.163 0.062 0 0.123-0.002 0.184-0.007l-0.008 0c2.368 0 4.137 1.687 4.407 4.151 0.037 0.338 0.078 0.677 0.123 1.029l0.023 0.169h0.041c0.233 0 0.457 0.037 0.667 0.046 1.225 0.062 2.325 0.553 3.162 1.324l-0.004-0.003c1.829 1.655 2.469 3.922 1.874 6.747-0.656 3.030-3.314 5.267-6.495 5.267-0.031 0-0.062-0-0.093-0.001l0.005 0h-2.153v0.402h0.581c0.672 0 1.303 0.023 1.934 0 2.597-0.183 4.594-1.486 5.943-3.877 0.252-0.496 0.469-1.074 0.623-1.678l0.013-0.059c0.082-0.274 0.165-0.549 0.256-0.814v-1.966c-0.039-0.063-0.069-0.137-0.086-0.215l-0.001-0.005c-0.681-3.127-2.386-4.928-5.216-5.513-0.357-0.117-0.627-0.405-0.716-0.765l-0.002-0.007c-0.59-2.898-2.327-4.48-5.166-4.704-0.595-0.031-1.111-0.342-1.422-0.803l-0.004-0.006c-2.034-2.661-4.631-4.005-7.735-4.005z"></path>
<path fill="#fff" style="fill: var(--color8, #fff)" d="M59.374 30.871c-1.829 0-3.031-1.125-3.035-2.798v-4.695c-0-0.008-0-0.018-0-0.029 0-1.488 1.184-2.699 2.661-2.742l0.004-0c0.12-0.015 0.258-0.024 0.398-0.024 0.818 0 1.568 0.294 2.149 0.782l-0.005-0.004c0.571 0.549 0.864 1.403 0.864 2.528v0.965q0 1.6 0 3.2c-0.005 1.659-1.253 2.816-3.035 2.816zM59.278 21.349h-0.242c-1.084 0.028-1.952 0.913-1.952 2.002 0 0.007 0 0.013 0 0.020v-0.001 4.704c0 1.262 0.882 2.048 2.286 2.048s2.286-0.827 2.286-2.066c0-1.065 0-2.135 0-3.2v-0.96c0-0.914-0.21-1.582-0.635-1.993-0.418-0.349-0.961-0.56-1.553-0.56-0.066 0-0.132 0.003-0.197 0.008l0.009-0.001zM59.392 29.714h-0.133c-0.855 0-1.733-0.21-1.751-1.554 0-1.582 0-3.2 0-4.859 0.027-1.371 0.951-1.55 1.751-1.563 1.088 0 1.829 0.238 1.943 1.522 0.023 0.32 0.023 0.649 0.023 0.974v1.925c0 0.123 0 0.242 0 0.366 0 0.553 0 1.129 0 1.701-0.073 1.225-0.754 1.49-1.833 1.49zM59.392 22.487h-0.087c-0.846 0-1.001 0.229-1.015 0.832-0.032 1.632-0.041 3.255 0 4.832 0 0.567 0.101 0.795 1.019 0.814 1.093 0.023 1.166-0.183 1.198-0.777s0-1.111 0-1.655c0-0.251 0-0.498 0-0.75l0.023-0.375v-1.179c0-0.306 0-0.613-0.023-0.914-0.073-0.59-0.165-0.823-1.134-0.823z"></path>
<path fill="#fff" style="fill: var(--color8, #fff)" d="M65.303 30.853c-0.512 0-1.029 0-1.545-0.041-0.457-0.023-0.773-0.645-0.814-0.955-0.016-0.113-0.025-0.244-0.025-0.377 0-1.21 0.75-2.246 1.811-2.666l0.019-0.007c0.178-0.073 0.361-0.133 0.544-0.192v-0.485h-2.322v-1.902h1.061c0.59 0 1.207 0 1.829 0.023 0.372 0.055 0.695 0.23 0.937 0.484l0.001 0.001c0.389 0.37 0.489 1.554 0.489 2.126 0 0.855-0.174 1.12-0.306 1.243-0.319 0.256-0.729 0.411-1.175 0.411-0.002 0-0.003 0-0.005 0h0c-0.485 0.032-0.731 0.16-0.846 0.457h2.286v1.829h-1.915zM63.863 30.066c0.727 0.041 1.477 0.037 2.203 0.032h0.402v-0.347h-2.382l0.032-0.402c0.091-1.312 0.965-1.527 1.609-1.573 0.016 0.001 0.034 0.001 0.052 0.001 0.25 0 0.482-0.076 0.675-0.205l-0.004 0.003c0.169-0.279 0.041-2.007-0.192-2.286-0.121-0.129-0.276-0.224-0.45-0.273l-0.007-0.002c-0.581-0.032-1.157-0.027-1.76 0h-0.325v0.398h2.322v1.778l-0.498 0.165c-0.169 0.055-0.338 0.11-0.503 0.178-0.817 0.296-1.39 1.066-1.39 1.969 0 0.099 0.007 0.196 0.020 0.291l-0.001-0.011c0.043 0.113 0.11 0.208 0.196 0.283l0.001 0.001z"></path>
<path fill="#fff" style="fill: var(--color8, #fff)" d="M55.771 30.994h-0.389c-0.334 0-0.667-0.027-1.006-0.037-0.795-0.027-1.618-0.055-2.432-0.155-0.914-0.19-1.591-0.988-1.591-1.945 0-0.006 0-0.012 0-0.017v0.001c0-2.368 0-4.32 0-6.139 0.015-1.123 0.917-2.030 2.037-2.053l0.002-0c0.677 0 1.371 0 2.066 0h1.335v1.861h-1.147c-0.59 0-1.193 0-1.792 0-0.041-0.008-0.088-0.012-0.136-0.012-0.149 0-0.288 0.042-0.406 0.115l0.003-0.002c-0.075 0.118-0.12 0.263-0.12 0.417 0 0.033 0.002 0.066 0.006 0.098l-0-0.004c0.032 1.851 0 3.726 0 5.312-0.005 0.031-0.007 0.067-0.007 0.103 0 0.152 0.045 0.294 0.123 0.412l-0.002-0.003c0.096 0.059 0.212 0.093 0.337 0.093 0.043 0 0.084-0.004 0.124-0.012l-0.004 0.001c0.603-0.037 1.189-0.032 1.829 0h1.17zM53.559 21.367c-0.384 0-0.768 0-1.147 0-0.712 0.031-1.281 0.6-1.312 1.309l-0 0.003c-0.023 1.829-0.023 3.758 0 6.126 0.002 0.583 0.396 1.072 0.933 1.218l0.009 0.002c0.773 0.101 1.582 0.123 2.359 0.151h0.626v-0.462h-0.457c-0.608 0-1.179 0-1.755 0-0.058 0.009-0.126 0.015-0.194 0.015-0.317 0-0.607-0.114-0.832-0.304l0.002 0.002c-0.217-0.245-0.35-0.57-0.35-0.925 0-0.049 0.003-0.098 0.008-0.146l-0.001 0.006c0-1.582 0.032-3.447 0-5.294-0.005-0.042-0.007-0.091-0.007-0.141 0-0.352 0.133-0.674 0.351-0.917l-0.001 0.001c0.245-0.204 0.563-0.327 0.909-0.327 0.065 0 0.128 0.004 0.191 0.013l-0.007-0.001c0.581 0.027 1.175 0 1.751 0h0.407v-0.37h-1.486z"></path>
<path fill="#3fa9f5" style="fill: var(--color7, #3fa9f5)" d="M52.809 12.201c-0.035 0.005-0.075 0.008-0.116 0.008-0.225 0-0.428-0.088-0.579-0.232l0 0c-0.247-0.27-0.187-0.635-0.087-1.239 0.567-3.525 3.497-6.318 6.811-6.491h0.389v1.915h-0.357c-1.447 0.087-2.716 0.777-3.572 1.82l-0.007 0.009c-0.878 1.029-1.43 2.361-1.481 3.82l-0 0.011-0.027 0.315-0.315 0.023c-0.256 0.023-0.475 0.041-0.658 0.041zM52.901 11.451c0.032 0.003 0.068 0.005 0.105 0.005s0.074-0.002 0.11-0.006l-0.005 0c0.113-1.523 0.715-2.886 1.648-3.953l-0.007 0.008c0.919-1.12 2.237-1.884 3.734-2.072l0.028-0.003v-0.165c-2.697 0.329-4.905 2.528-5.486 5.637-0.053 0.155-0.097 0.34-0.126 0.53l-0.002 0.018z"></path>
<path fill="#3fa9f5" style="fill: var(--color7, #3fa9f5)" d="M71.771 18.432v-1.038h1.029v1.038z"></path>
<path fill="#3fa9f5" style="fill: var(--color7, #3fa9f5)" d="M51.79 14.839h-1.088v-1.079h1.088z"></path>
<path fill="#3fa9f5" style="fill: var(--color7, #3fa9f5)" d="M56.603 14.843h-1.12v-1.065h1.12z"></path>
<path fill="#3fa9f5" style="fill: var(--color7, #3fa9f5)" d="M65.723 14.839v-1.070h1.129v1.070z"></path>
<path fill="#3fa9f5" style="fill: var(--color7, #3fa9f5)" d="M64.425 22.075h-1.097v-1.097h1.097z"></path>
<path fill="#3fa9f5" style="fill: var(--color7, #3fa9f5)" d="M68.055 22.176v1.083h-1.093v-1.083z"></path>
<path fill="#3fa9f5" style="fill: var(--color7, #3fa9f5)" d="M70.546 14.825v-1.056h1.074v1.056z"></path>
<path fill="#3fa9f5" style="fill: var(--color7, #3fa9f5)" d="M59.122 14.958h1.12v1.042h-1.12z"></path>
<path fill="#3fa9f5" style="fill: var(--color7, #3fa9f5)" d="M54.194 17.262h-1.083v-1.088h1.083z"></path>
<path fill="#3fa9f5" style="fill: var(--color7, #3fa9f5)" d="M63.319 17.298v-1.125h1.138v1.070z"></path>
<path fill="#3fa9f5" style="fill: var(--color7, #3fa9f5)" d="M69.234 17.243h-1.079v-1.074h1.079z"></path>
<path fill="#3fa9f5" style="fill: var(--color7, #3fa9f5)" d="M57.829 17.371v1.047h-1.143v-1.047z"></path>
<path fill="#3fa9f5" style="fill: var(--color7, #3fa9f5)" d="M50.702 18.574h1.065v1.056h-1.065z"></path>
<path fill="#3fa9f5" style="fill: var(--color7, #3fa9f5)" d="M62.048 19.657h-1.12v-1.070h1.12z"></path>
<path fill="#3fa9f5" style="fill: var(--color7, #3fa9f5)" d="M65.742 18.578h1.102v1.047h-1.102z"></path>
<path fill="#3fa9f5" style="fill: var(--color7, #3fa9f5)" d="M70.437 19.771v1.083h-1.079v-1.083z"></path>
<path fill="#3fa9f5" style="fill: var(--color7, #3fa9f5)" d="M48.187 19.776v1.061h-1.070v-1.061z"></path>
<path fill="#3fa9f5" style="fill: var(--color7, #3fa9f5)" d="M49.371 17.253h-1.042v-1.074h1.042z"></path>
<path fill="#3fa9f5" style="fill: var(--color7, #3fa9f5)" d="M45.765 18.446h-1.038v-1.051h1.038z"></path>
<path fill="#3f9" style="fill: var(--color5, #3f9)" d="M15.922 0c-0.023-0-0.050-0-0.078-0-8.837 0-16 7.163-16 16s7.163 16 16 16c8.836 0 16-7.163 16-16v-0c0-0.012 0-0.027 0-0.041 0-8.801-7.124-15.938-15.92-15.959h-0.002zM21.838 5.509c0.567 0 1.285 1.911 1.705 2.075 0.654 0.256 0.073-1.71 0.265-1.422 0.315 0.457 1.257 1.029 1.179 1.554s2.286-0.425 1.778 1.303c-0.402 1.431-2.473-0.283-3.369-0.146-0.562 0.087-0.119 1.495-0.855 1.495-0.028 0.001-0.061 0.002-0.095 0.002-0.94 0-1.759-0.52-2.184-1.287l-0.006-0.013c-0.097-0.169-0.181-0.365-0.242-0.57l-0.005-0.020c-0.114-0.402-1.966-0.622-2.011-1.038-0.169-1.499 3.031-2.226 3.237-1.925s0.457 1.829 0.841 1.755c0.206-0.046-0.48-1.765-0.238-1.765zM27.031 26.825c-2.153 1.975-4.736 3.803-7.52 4.352-0.457 0.096-1.038 0.137-1.6 0.21-0.245 0.081-0.526 0.128-0.819 0.128-0.008 0-0.015-0-0.023-0h0.001c-0.23 0.035-0.495 0.055-0.766 0.055-0.023 0-0.047-0-0.070-0l0.004 0h-1.371c-0.029 0.001-0.063 0.001-0.097 0.001-0.568 0-1.115-0.091-1.627-0.258l0.037 0.010s-0.379-0.133-0.398-0.137c-1.189-0.357-3.067-1.701-3.808-2.363l-0.987-0.352c-1.234-4.215 0.549-3.127 0.32-3.79-0.389-0.955 0-2.057 0.192-3.026 0.064-0.782-0.206-1.12-0.151-1.765 0-0.003 0-0.006 0-0.008 0-0.235-0.044-0.46-0.123-0.667l0.004 0.013c-0.187-0.27-2.885-1.275-2.711-1.522 0.494-0.681-1.184-2.4-1.467-2.651-1.371-1.221-1.911-1.079-2.171-0.498-1.106-4.114 0.768-5.531 0.763-5.719 0-0.334 0.114-0.265 0.274 1.202 0.654-0.43 1.787-3.762 3.625-4.114 0.206-0.041 0.718-0.558 0.914-0.521 0.242-0.242 0.946-0.357 1.271-0.457s1.975-3.319 2.345-3.232 0.037 0.955 0.265 1.344c0.123 0.206 2.743-1.952 4.517-2.528 0.613-0.201 2.062-0.123 2.231 0.096 0.096 0.123-1.010 0.329-1.44 0.942-0.763 1.083 0.055 2.286 0.114 2.51 0 0-2.071 1.129-1.458 2.574l-1.202 0.293c-0.064 0.027-0.457 0.389-0.293 0.672 1.499 2.647-1.253 3.525-1.801 4.914-0.082 0.398 0.146 1.321-0.091 1.641-0.064 0.242 0 0.293-0.037 0.512 0.078 0.379 0.187 0.421 0.128 0.805 0.488 0.804 1.056 1.495 1.708 2.097l0.006 0.006c0.672 0.21 1.513-0.174 2.053-0.201 0.325-0.142 1.029-0.11 1.134 0.114 0.142 0.302 0.142 0.302 0.274 0.407 0.215 0.105 0.343-0.357 0.512-0.201 0.361 0.229 0.201 0.457 0.059 1.344 0 0.37 1.742 0.805 0.494 4.389 0.274 0.329 0.169 3.031 1.006 3.154 1.554 0.224 3.118-2.56 4.352-4.050 0-0.658 0-1.874 0.206-2.377 0.187-0.357 0.818-1.038 1.198-1.701 0.212-0.434 0.456-0.808 0.739-1.147l-0.007 0.009c0.048-0.126 0.108-0.234 0.181-0.333l-0.003 0.004c0.083-0.174 0.178-0.324 0.287-0.462l-0.004 0.005c-0.041-0.169-0.055-1.303-0.055-1.303s-1.239 0.457-1.371 0.224c-0.386-0.521-0.776-1.118-1.131-1.737l-0.048-0.091c-0.677-1.449-1.070-2.519-1.070-2.519 1.026 1.186 1.85 2.58 2.399 4.105l0.029 0.091s1.152-1.074 2.021-1.646l-0.096-2.071c0.192 0.123 0.773-0.274 1.056 0.146 0.393 0.59 0.763 1.001 1.047 1.44 0.096 0.151 0.754 3.2 0.882 3.328 0.352 0.347 0.526-4.713 0.535-4.224 0.26 0.712 0.528 1.304 0.833 1.874l-0.038-0.077c0.128 0.224-0.119 2.533-0.078 5.271 0.151 0.293-0.809 1.312-0.695 1.577 0.37 0.887-2.738 5.298-3.387 5.893z"></path>
</symbol>
<symbol id="man" viewBox="0 0 57 32">
<path fill="#020a06" style="fill: var(--color11, #020a06)" d="M4.059 21.803l0.329-0.663v1.072c0 2.079 0 4.165 0 6.244 0 0.012 0 0.025 0 0.039 0 0.241-0.056 0.468-0.156 0.67l0.004-0.009-0.329 0.663c0.1-0.203 0.159-0.443 0.159-0.696 0-0.006-0-0.011-0-0.017v0.001q0-3.116 0-6.244v-1.060z"></path>
<path fill="#020a06" style="fill: var(--color11, #020a06)" d="M8.137 20.773l0.333-0.659v0.379c0 2.651 0 5.301 0 7.974 0.001 0.015 0.001 0.033 0.001 0.051 0 0.232-0.052 0.451-0.145 0.647l0.004-0.009-0.333 0.659c0.093-0.187 0.148-0.408 0.148-0.641 0-0.006-0-0.012-0-0.018v0.001q0-3.987 0-7.952v-0.379z"></path>
<path fill="#000" style="fill: var(--color9, #000)" d="M8.145 18.005l0.329-0.659 0.049 0.015-0.333 0.663-0.045-0.019z"></path>
<path fill="#020a06" style="fill: var(--color11, #020a06)" d="M8.19 18.024l0.333-0.663c0.322-0.462 0.644-0.928 0.977-1.39l-0.333 0.663c-0.329 0.462-0.651 0.924-0.977 1.39z"></path>
<path fill="#020a06" style="fill: var(--color11, #020a06)" d="M9.167 16.634l0.333-0.663c0.026-0.035 0.050-0.075 0.070-0.117l0.002-0.004-0.329 0.659c-0.023 0.048-0.048 0.089-0.077 0.127l0.001-0.002z"></path>
<path fill="#020a06" style="fill: var(--color11, #020a06)" d="M8.141 14.627l0.329-0.663v3.381l-0.329 0.659v-3.378z"></path>
<path fill="#020a06" style="fill: var(--color11, #020a06)" d="M11.886 15.805l0.329-0.659c0.024 0.079 0.038 0.17 0.038 0.265 0 0.161-0.041 0.312-0.113 0.445l0.002-0.005-0.329 0.663c0.069-0.128 0.11-0.28 0.11-0.442 0-0.095-0.014-0.186-0.040-0.272l0.002 0.007z"></path>
<path fill="#020a06" style="fill: var(--color11, #020a06)" d="M0.674 15.415l0.329-0.648c1.791-0.288 3.506-0.757 5.252-1.136 0.629-0.094 1.153-0.477 1.438-1.008l0.005-0.010-0.329 0.659c-0.291 0.543-0.816 0.927-1.436 1.021l-0.011 0.001c-1.742 0.379-3.457 0.833-5.248 1.136z"></path>
<path fill="#020a06" style="fill: var(--color11, #020a06)" d="M7.978 11.443l0.329-0.663c0.389 0.081 0.719 0.289 0.956 0.576l0.002 0.003c0.897 1.091 1.802 2.177 2.692 3.275 0.113 0.145 0.201 0.315 0.255 0.5l0.003 0.011-0.329 0.659c-0.059-0.197-0.147-0.368-0.261-0.519l0.003 0.004c-0.89-1.094-1.799-2.181-2.692-3.272-0.238-0.29-0.569-0.497-0.947-0.574l-0.011-0.002z"></path>
<path fill="#32fb96" style="fill: var(--color12, #32fb96)" d="M11.886 15.805c0.024 0.080 0.038 0.173 0.038 0.268 0 0.212-0.068 0.408-0.184 0.568l0.002-0.003q-1.102 1.723-2.215 3.431c-0.307 0.426-0.801 0.701-1.36 0.701-0.010 0-0.021-0-0.031-0l0.002 0v0.379q0 3.983 0 7.952c0 0.002 0 0.004 0 0.006 0 0.79-0.605 1.438-1.376 1.508l-0.006 0c-0.090 0.025-0.199 0.045-0.309 0.056l-0.009 0.001c-0.924 0-1.662-0.617-1.666-1.465 0-2.374 0-4.752 0-7.126v-0.273h-0.712v1.064q0 3.124 0 6.244c0.001 0.015 0.001 0.032 0.001 0.050 0 0.667-0.447 1.23-1.058 1.405l-0.010 0.003c-0.191 0.062-0.411 0.098-0.64 0.098-0 0-0 0-0 0v0c-0.032 0.002-0.070 0.004-0.108 0.004-0.838 0-1.521-0.66-1.558-1.488l-0-0.003q-0.011-4.949-0.008-9.871v-3.896c1.791-0.284 3.506-0.757 5.248-1.136 0.755-0.106 1.362-0.638 1.575-1.342l0.004-0.014c0.148-0.496 0.311-0.985 0.477-1.515 0.389 0.079 0.72 0.285 0.956 0.573l0.002 0.003c0.894 1.091 1.802 2.177 2.692 3.272 0.112 0.157 0.2 0.34 0.251 0.538l0.003 0.011zM9.167 16.634c0.088-0.103 0.141-0.238 0.141-0.385 0-0.163-0.066-0.311-0.172-0.418l0 0c-0.292-0.379-0.579-0.723-0.871-1.087-0.039-0.041-0.080-0.080-0.123-0.116l-0.002-0.002v3.378l0.045 0.019c0.326-0.466 0.647-0.928 0.977-1.39z"></path>
<path fill="#020a06" style="fill: var(--color11, #020a06)" d="M5.494 8.777l0.333-0.663c-0.023 0.045-0.042 0.091-0.061 0.136-0.186 0.5-0.379 1.003-0.53 1.515l-0.023 0.061-0.333 0.663c0.010-0.017 0.019-0.037 0.026-0.059l0.001-0.002c0.167-0.507 0.345-1.011 0.53-1.515 0.020-0.054 0.039-0.098 0.060-0.141l-0.004 0.008z"></path>
<path fill="#020a06" style="fill: var(--color11, #020a06)" d="M1.174 6.305l0.341-0.663c0.538-1.075 1.727-1.795 3.192-1.833h0.098l-0.329 0.663h-0.098c-0.026-0.001-0.057-0.001-0.088-0.001-1.333 0-2.495 0.732-3.106 1.816l-0.009 0.018z"></path>
<path fill="#020a06" style="fill: var(--color11, #020a06)" d="M4.464 4.468l0.329-0.663c2.098 0 3.847 1.806 3.408 3.533l-0.329 0.659c0.424-1.727-1.325-3.529-3.408-3.529z"></path>
<path fill="#32fb96" style="fill: var(--color12, #32fb96)" d="M4.464 4.468c2.098 0 3.847 1.802 3.408 3.529-0.307 0-0.61-0.045-0.913-0.053h-0.042c-0.011-0-0.025-0-0.038-0-0.651 0-1.211 0.393-1.454 0.956l-0.004 0.010c-0.186 0.5-0.379 1.003-0.53 1.515-0.053 0.151-0.136 0.204-0.318 0.212h-0.223c-1.924 0-3.575-1.462-3.499-3.158s1.545-2.961 3.499-3.029z"></path>
<path fill="#020a06" style="fill: var(--color11, #020a06)" d="M0.121 12.931l0.329-0.659c0.034-0.069 0.074-0.129 0.122-0.183l-0.001 0.001c0.187-0.226 0.451-0.384 0.75-0.434l0.007-0.001c1.098-0.189 2.2-0.379 3.298-0.557 0.322-0.027 0.594-0.22 0.732-0.491l0.002-0.005-0.329 0.659c-0.142 0.269-0.408 0.455-0.72 0.484l-0.004 0c-1.102 0.178-2.2 0.379-3.298 0.553-0.306 0.053-0.569 0.211-0.756 0.434l-0.002 0.002c-0.045 0.053-0.085 0.113-0.119 0.176l-0.003 0.005z"></path>
<path fill="#020a06" style="fill: var(--color11, #020a06)" d="M5.865 8.963l0.329-0.659c0.196-0.392 0.594-0.657 1.054-0.657 0.041 0 0.081 0.002 0.121 0.006l-0.005-0-0.329 0.678c-0.034-0.004-0.074-0.006-0.114-0.006-0.461 0-0.86 0.265-1.053 0.65l-0.003 0.007z"></path>
<path fill="#020a06" style="fill: var(--color11, #020a06)" d="M7.035 8.33l0.329-0.659c0.031-0.002 0.066-0.003 0.102-0.003s0.072 0.001 0.107 0.003l-0.005-0-0.329 0.659h-0.204z"></path>
<path fill="#020a06" style="fill: var(--color11, #020a06)" d="M7.24 8.33l0.333-0.67c0.029 0.002 0.063 0.003 0.097 0.003s0.068-0.001 0.101-0.003l-0.005 0c0.617 0.034 0.958 0.443 0.799 0.966-0.14 0.454-0.292 0.905-0.435 1.359-0.235 0.735-0.477 1.469-0.704 2.208-0.034 0.102-0.069 0.186-0.108 0.267l0.006-0.013-0.329 0.663c0.035-0.072 0.069-0.157 0.095-0.245l0.003-0.012c0.231-0.735 0.47-1.469 0.708-2.208 0.144-0.451 0.295-0.901 0.432-1.359 0.163-0.519-0.178-0.928-0.795-0.962h-0.193z"></path>
<path fill="#32fb96" style="fill: var(--color12, #32fb96)" d="M7.035 8.33h0.398c0.617 0.034 0.958 0.443 0.795 0.962-0.136 0.458-0.288 0.909-0.432 1.359-0.223 0.742-0.477 1.465-0.708 2.223-0.17 0.554-0.635 0.967-1.207 1.059l-0.009 0.001c-1.515 0.341-3.029 0.689-4.544 1.019-0.123 0.024-0.264 0.038-0.409 0.038-0.004 0-0.008 0-0.012-0h0.001c-0.134-0.001-0.266-0.009-0.395-0.024l0.016 0.002c-0.017 0.003-0.037 0.004-0.057 0.004-0.228 0-0.413-0.185-0.413-0.413 0-0.005 0-0.011 0-0.016l-0 0.001c-0.027-0.254-0.042-0.507-0.061-0.757-0.008-0.059-0.013-0.127-0.013-0.196 0-0.314 0.095-0.605 0.259-0.847l-0.003 0.005c0.189-0.225 0.451-0.382 0.75-0.434l0.008-0.001c1.098-0.186 2.196-0.379 3.298-0.553 0.351-0.035 0.639-0.268 0.755-0.584l0.002-0.006c0.235-0.663 0.466-1.329 0.697-1.992 0.149-0.499 0.603-0.857 1.142-0.857 0.050 0 0.099 0.003 0.148 0.009l-0.006-0.001z"></path>
<path fill="#fff" style="fill: var(--color8, #fff)" d="M20.754 2.363c-0.964-1.431-2.579-2.359-4.41-2.359-1.292 0-2.476 0.462-3.395 1.23l0.008-0.007c-1.132 0.942-1.847 2.352-1.847 3.928 0 1.407 0.57 2.681 1.491 3.604l-0-0c0.953 0.956 2.272 1.548 3.728 1.548 0.957 0 1.855-0.256 2.628-0.702l-0.025 0.014c1.554-0.835 2.604-2.431 2.65-4.276l0-0.006c0.001-0.039 0.002-0.085 0.002-0.131 0-1.055-0.31-2.038-0.843-2.862l0.012 0.021zM16.596 1.893c1.072 0.148 2.616 1.197 0.682 3.078-0.534 0.519-0.17 1.136-0.443 1.174-0.496 0.106-0.807 0.053-0.89-0.091-0.027-0.109-0.042-0.234-0.042-0.363 0-0.347 0.111-0.668 0.299-0.929l-0.003 0.005c0.549-0.784 1.136-1.344 0.863-1.761-0.379-0.572-1.609 0.095-1.685 0-0.136-0.137-0.22-0.326-0.22-0.534 0-0.071 0.010-0.141 0.028-0.206l-0.001 0.005c0.064-0.189 0.738-0.492 1.412-0.379zM16.418 8.092c-0.005 0-0.011 0-0.017 0-0.326 0-0.591-0.265-0.591-0.591 0-0.32 0.255-0.581 0.573-0.591l0.001-0c0.036-0.008 0.078-0.013 0.121-0.013 0.326 0 0.591 0.264 0.591 0.591s-0.264 0.591-0.591 0.591c-0.031 0-0.061-0.002-0.090-0.007l0.003 0z"></path>
<path fill="#3fa9f5" style="fill: var(--color7, #3fa9f5)" d="M55.439 25.692c1.488 1.045 1.59 2.022 0.261 3.162-1.086 0.869-2.403 1.496-3.843 1.778l-0.057 0.009c-3.34 0.834-7.175 1.313-11.121 1.313-3.871 0-7.635-0.461-11.239-1.33l0.326 0.066c-1.503-0.287-2.832-0.882-3.973-1.719l0.027 0.019c-0.992-0.784-1.545-1.746-0.189-3.332-0.257 2.707 1.454 3.317 3.116 3.787 3.573 1.074 7.678 1.692 11.928 1.692 4.326 0 8.502-0.64 12.439-1.832l-0.304 0.079c2.601-0.761 2.904-1.363 2.628-3.692z"></path>
<path fill="#3fa9f5" style="fill: var(--color7, #3fa9f5)" d="M40.743 12.064c0.663 1.477 1.113 2.628 1.681 3.715 1.776 3.502 4.679 6.216 8.224 7.707l0.107 0.040c0.659 0.273 1.481 0.485 1.541 1.333 0.076 1.003-0.867 1.215-1.549 1.515-1.552 0.688-3.353 1.154-5.244 1.303l-0.057 0.004c-4.328 0.481-8.637 0.435-12.874-0.644-0.988-0.297-1.832-0.641-2.636-1.052l0.088 0.041c-0.485-0.216-0.931-0.557-0.878-1.178s0.545-0.856 1.072-1c5.854-1.575 8.895-5.797 10.527-11.784z"></path>
<path fill="#3fa9f5" style="fill: var(--color7, #3fa9f5)" d="M40.781 5.146c0.621 0.17 0.689 0.727 0.757 1.219 0.020 0.065 0.032 0.139 0.032 0.217 0 0.405-0.319 0.736-0.719 0.756l-0.002 0c-0.617 0.057-0.791-0.379-0.757-0.875s0.125-1.038 0.689-1.318z"></path>
</symbol>
</defs>
</svg>
